<svg width="1446" height="509" viewBox="0 0 1446 509" fill="none" xmlns="http://www.w3.org/2000/svg">
<path d="M0 0H602.422L783 509H0V0Z" fill="#FAFA38"/>
<path d="M148.336 218.392C147.568 218.435 146.928 218.072 146.416 217.304C145.904 216.536 145.669 215.896 145.712 215.384C145.755 214.701 145.947 213.72 146.288 212.44C146.629 211.16 147.013 209.859 147.44 208.536C147.867 207.213 148.251 206.168 148.592 205.4C148.763 204.717 148.912 204.12 149.04 203.608C149.211 203.053 149.317 202.691 149.36 202.52C149.488 202.349 149.68 201.901 149.936 201.176C150.235 200.451 150.469 199.747 150.64 199.064C150.725 198.723 150.896 198.083 151.152 197.144C151.451 196.163 151.792 195.032 152.176 193.752C152.603 192.472 153.008 191.213 153.392 189.976C153.819 188.739 154.181 187.651 154.48 186.712C154.779 185.773 154.971 185.155 155.056 184.856C155.397 184.344 155.653 183.853 155.824 183.384C155.995 182.915 156.101 182.595 156.144 182.424C156.4 182.253 156.549 182.04 156.592 181.784C156.635 181.485 156.656 181.251 156.656 181.08C156.656 180.867 156.72 180.696 156.848 180.568C157.019 180.44 157.104 180.291 157.104 180.12C157.275 179.992 157.381 179.971 157.424 180.056C157.467 180.141 157.595 180.077 157.808 179.864L158.128 177.688L163.824 177.624C163.739 178.136 163.611 178.776 163.44 179.544C163.269 180.269 162.864 181.251 162.224 182.488C162.011 183.341 161.755 184.109 161.456 184.792C161.2 185.475 161.093 185.923 161.136 186.136C161.051 186.221 160.859 186.648 160.56 187.416C160.304 188.184 159.984 189.123 159.6 190.232C159.259 191.341 158.896 192.451 158.512 193.56C158.171 194.669 157.851 195.651 157.552 196.504C157.296 197.315 157.125 197.827 157.04 198.04C156.699 198.723 156.315 199.725 155.888 201.048C155.461 202.371 154.821 204.163 153.968 206.424C153.627 207.107 153.2 208.131 152.688 209.496C152.219 210.861 151.835 212.099 151.536 213.208C151.067 214.872 150.64 216.067 150.256 216.792C149.915 217.517 149.595 217.944 149.296 218.072C148.997 218.243 148.677 218.349 148.336 218.392ZM148.912 180.76C147.163 180.931 145.968 180.717 145.328 180.12C144.731 179.523 144.517 178.883 144.688 178.2C144.816 177.688 145.115 177.261 145.584 176.92C146.096 176.536 147.013 176.216 148.336 175.96C148.805 175.875 149.403 175.768 150.128 175.64C150.896 175.512 151.621 175.384 152.304 175.256C153.712 175.085 154.864 174.936 155.76 174.808C156.699 174.68 157.659 174.573 158.64 174.488C159.621 174.403 160.859 174.317 162.352 174.232C163.589 174.147 164.635 174.083 165.488 174.04C166.384 173.955 166.832 173.912 166.832 173.912C166.96 173.912 167.408 173.955 168.176 174.04C168.944 174.125 169.776 174.232 170.672 174.36C171.568 174.488 172.229 174.637 172.656 174.808C173.637 175.021 174.427 175.405 175.024 175.96C175.621 176.515 176.005 177.155 176.176 177.88C176.304 178.392 176.304 178.797 176.176 179.096C176.048 179.352 175.813 179.565 175.472 179.736C174.491 180.035 173.68 180.291 173.04 180.504C172.443 180.675 171.845 180.653 171.248 180.44C171.035 180.227 170.779 180.035 170.48 179.864C170.224 179.693 169.755 179.565 169.072 179.48C168.432 179.352 167.408 179.245 166 179.16C164.805 179.288 163.76 179.352 162.864 179.352C161.968 179.352 161.52 179.459 161.52 179.672L157.744 179.864L154.608 180.184C154.181 180.227 153.584 180.291 152.816 180.376C152.048 180.419 151.301 180.483 150.576 180.568C149.851 180.611 149.296 180.675 148.912 180.76ZM173.459 212.568C173.16 212.611 172.819 212.504 172.435 212.248C172.093 211.949 171.773 211.693 171.475 211.48C171.048 210.968 170.749 210.52 170.579 210.136C170.408 209.752 170.323 209.325 170.323 208.856C170.323 208.387 170.365 207.832 170.451 207.192C170.664 206.509 170.92 205.592 171.219 204.44C171.517 203.288 171.88 202.051 172.307 200.728C172.392 200.216 172.541 199.619 172.755 198.936C173.011 198.211 173.267 197.528 173.523 196.888C173.779 196.205 173.971 195.693 174.099 195.352C174.397 194.285 174.696 193.261 174.995 192.28C175.336 191.299 175.741 190.168 176.211 188.888C176.68 187.608 177.256 185.987 177.939 184.024C178.877 181.464 179.581 179.544 180.051 178.264C180.52 176.984 180.861 176.067 181.075 175.512C181.288 174.957 181.437 174.509 181.523 174.168C181.523 173.827 181.757 173.507 182.227 173.208C182.739 172.867 183.187 172.696 183.571 172.696C184.168 172.739 184.744 173.101 185.299 173.784C185.853 174.424 186.237 175.213 186.451 176.152C186.664 177.048 186.515 177.923 186.003 178.776C185.32 180.312 184.637 182.04 183.955 183.96C183.315 185.837 182.675 187.715 182.035 189.592C181.395 191.469 180.755 193.197 180.115 194.776C180.072 194.989 179.923 195.352 179.667 195.864C179.453 196.376 179.261 196.803 179.091 197.144C178.92 197.485 178.749 197.805 178.579 198.104C178.451 198.403 178.387 198.552 178.387 198.552C178.344 198.808 178.259 199.171 178.131 199.64C178.003 200.109 177.875 200.515 177.747 200.856C177.704 201.069 177.64 201.347 177.555 201.688C177.469 202.029 177.405 202.371 177.363 202.712C177.576 202.456 177.875 202.157 178.259 201.816C178.643 201.432 179.133 200.963 179.731 200.408C180.413 199.811 181.011 199.299 181.523 198.872C182.035 198.445 182.547 198.061 183.059 197.72C183.528 197.379 183.955 197.059 184.339 196.76C184.765 196.461 184.979 196.312 184.979 196.312C185.064 196.184 185.149 196.035 185.235 195.864C185.363 195.693 185.491 195.587 185.619 195.544C185.704 195.459 185.853 195.352 186.067 195.224C186.28 195.053 186.493 194.883 186.707 194.712C187.091 194.456 187.496 194.243 187.923 194.072C188.349 193.901 188.797 193.773 189.267 193.688C189.736 193.603 190.184 193.56 190.611 193.56C191.123 193.56 191.656 193.773 192.211 194.2C192.765 194.584 193.277 195.139 193.747 195.864C194.173 196.419 194.429 197.08 194.515 197.848C194.643 198.573 194.664 199.555 194.579 200.792C194.579 201.133 194.472 201.773 194.259 202.712C194.088 203.651 193.96 204.355 193.875 204.824L193.299 207H193.811C194.28 206.829 194.728 206.808 195.155 206.936C195.624 207.064 195.859 207.128 195.859 207.128C196.072 207.256 196.264 207.405 196.435 207.576C196.648 207.747 196.84 207.875 197.011 207.96C197.267 208.301 197.224 208.792 196.882 209.432C196.541 210.072 196.157 210.52 195.731 210.776C194.707 211.459 193.789 211.885 192.979 212.056C192.211 212.227 191.4 212.077 190.547 211.608C189.736 211.053 189.181 210.392 188.883 209.624C188.627 208.856 188.52 207.811 188.563 206.488C188.733 204.611 188.84 203.267 188.883 202.456C188.925 201.603 188.712 201.176 188.243 201.176C187.731 201.176 187.027 201.432 186.131 201.944C185.277 202.413 184.317 203.075 183.251 203.928C182.184 204.739 181.117 205.656 180.051 206.68C179.027 207.661 178.109 208.664 177.299 209.688C176.787 210.328 176.232 210.968 175.635 211.608C175.037 212.205 174.312 212.525 173.459 212.568ZM213.565 213.72C212.285 214.445 210.919 214.872 209.469 215C208.061 215.085 206.738 214.893 205.501 214.424C204.263 213.912 203.261 213.165 202.493 212.184C202.066 211.629 201.661 210.755 201.277 209.56C200.893 208.323 200.829 206.659 201.085 204.568C201.341 202.605 201.938 200.621 202.877 198.616C203.858 196.611 205.053 194.84 206.461 193.304C207.869 191.768 209.405 190.723 211.069 190.168C211.666 189.955 212.263 189.805 212.861 189.72C213.501 189.592 214.333 189.571 215.357 189.656C216.338 189.784 217.213 190.04 217.981 190.424C218.749 190.765 219.303 191.149 219.645 191.576C220.327 192.259 220.775 192.92 220.989 193.56C221.202 194.2 221.287 194.819 221.245 195.416C221.031 196.781 220.413 198.253 219.389 199.832C218.407 201.411 217.021 202.584 215.229 203.352C214.503 203.651 213.65 203.843 212.669 203.928C211.687 204.013 210.343 203.885 208.637 203.544C207.613 203.331 206.93 203.437 206.589 203.864C206.29 204.291 206.162 205.123 206.205 206.36C206.29 207.128 206.461 207.811 206.717 208.408C207.015 208.963 207.549 209.347 208.317 209.56C209.298 209.731 210.002 209.752 210.429 209.624C210.855 209.453 211.389 209.219 212.029 208.92C212.37 208.707 212.69 208.472 212.989 208.216C213.33 207.96 213.65 207.704 213.949 207.448C214.29 207.192 214.567 207 214.781 206.872C214.994 206.701 215.207 206.595 215.421 206.552C215.634 206.509 215.847 206.488 216.061 206.488C216.53 206.531 216.978 206.787 217.405 207.256C217.831 207.725 218.109 208.173 218.237 208.6C218.237 208.941 218.023 209.432 217.597 210.072C217.17 210.669 216.594 211.309 215.869 211.992C215.186 212.632 214.418 213.208 213.565 213.72ZM212.733 199.448C213.031 199.32 213.458 199.021 214.013 198.552C214.61 198.083 215.143 197.592 215.613 197.08C216.082 196.525 216.317 196.099 216.317 195.8C216.317 195.331 215.997 194.925 215.357 194.584C214.759 194.243 213.97 194.179 212.989 194.392C212.647 194.477 212.242 194.712 211.773 195.096C211.303 195.48 210.834 195.928 210.365 196.44C209.895 196.909 209.49 197.379 209.149 197.848C208.807 198.275 208.573 198.616 208.445 198.872C208.615 199.085 208.957 199.256 209.469 199.384C209.981 199.512 210.535 199.576 211.133 199.576C211.773 199.576 212.306 199.533 212.733 199.448Z" fill="black"/>
<path d="M156.048 325.32C154.512 324.893 153.275 324.509 152.336 324.168C151.397 323.912 150.928 323.784 150.928 323.784C151.099 323.357 151.013 322.973 150.672 322.632C150.416 322.291 149.819 322.077 148.88 321.992C147.6 321.139 146.277 319.944 144.912 318.408C143.547 316.872 142.352 315.293 141.328 313.672C140.304 312.051 139.621 310.856 139.28 310.088C138.683 308.808 138.725 308.04 139.408 307.784C140.091 307.443 140.901 307.059 141.84 306.632C142.779 305.949 143.76 305.437 144.784 305.096C145.893 304.755 146.789 305.309 147.472 306.76C148.581 308.723 150.288 310.387 152.592 311.752C154.981 313.117 157.669 313.928 160.656 314.184C163.728 314.44 166.8 313.928 169.872 312.648C171.92 311.709 173.029 310.429 173.2 308.808C173.371 307.101 172.731 305.139 171.28 302.92C171.024 302.237 170.64 301.683 170.128 301.256C169.701 300.829 169.019 300.275 168.08 299.592C167.227 298.909 165.989 297.8 164.368 296.264C163.088 295.667 161.893 295.112 160.784 294.6C159.76 294.088 158.651 293.533 157.456 292.936C156.091 292.253 154.555 291.315 152.848 290.12C151.141 288.84 149.563 287.475 148.112 286.024C146.661 284.488 145.552 283.037 144.784 281.672C143.419 280.392 142.565 278.643 142.224 276.424C141.883 274.12 141.925 271.688 142.352 269.128C142.864 266.568 143.675 264.264 144.784 262.216C145.296 261.021 146.235 259.485 147.6 257.608C148.965 255.645 150.501 253.64 152.208 251.592C153.915 249.544 155.536 247.709 157.072 246.088C158.693 244.381 159.973 243.229 160.912 242.632C161.595 241.949 162.32 241.267 163.088 240.584C163.856 239.816 164.24 239.432 164.24 239.432C164.325 239.005 164.453 238.792 164.624 238.792C164.88 238.792 165.008 238.792 165.008 238.792C165.435 238.536 166.373 238.109 167.824 237.512C169.275 236.915 170.853 235.805 172.56 234.184C178.277 231.453 183.141 229.619 187.152 228.68C191.163 227.656 194.32 227.144 196.624 227.144C198.757 227.229 200.848 227.827 202.896 228.936C204.944 229.96 206.693 231.283 208.144 232.904C209.68 234.525 210.576 236.36 210.832 238.408C211.429 240.456 211.131 242.931 209.936 245.832C208.827 248.648 207.248 251.336 205.2 253.896C203.237 256.371 201.189 258.205 199.056 259.4C196.667 260.424 194.619 260.552 192.912 259.784C191.291 259.016 190.523 257.821 190.608 256.2C190.608 255.517 190.821 254.707 191.248 253.768C191.76 252.829 193.083 251.165 195.216 248.776C197.947 244.765 199.397 241.907 199.568 240.2C199.739 238.493 198.971 237.512 197.264 237.256C196.752 237.085 195.771 237.128 194.32 237.384C192.869 237.64 191.291 237.981 189.584 238.408C187.963 238.749 186.512 239.133 185.232 239.56C184.037 239.987 183.44 240.285 183.44 240.456C183.44 240.456 183.44 240.584 183.44 240.84C183.44 241.096 183.269 241.181 182.928 241.096C182.757 241.096 182.16 241.395 181.136 241.992C180.197 242.504 179.045 243.187 177.68 244.04C176.315 244.893 174.949 245.789 173.584 246.728C172.304 247.581 171.195 248.349 170.256 249.032C169.317 249.715 168.805 250.141 168.72 250.312C168.549 251.251 167.568 252.104 165.776 252.872C164.069 253.896 162.576 255.347 161.296 257.224C160.016 259.101 158.523 261.491 156.816 264.392C155.365 266.355 154.341 268.488 153.744 270.792C153.147 273.011 153.147 274.803 153.744 276.168C154.171 277.533 155.323 278.899 157.2 280.264C159.163 281.544 161.808 283.165 165.136 285.128C168.037 286.749 170.768 288.456 173.328 290.248C175.888 292.04 178.064 293.789 179.856 295.496C181.648 297.117 182.8 298.483 183.312 299.592C184.336 301.043 184.933 302.707 185.104 304.584C185.36 306.461 185.36 308.296 185.104 310.088C184.933 311.795 184.677 313.203 184.336 314.312C183.739 315.677 182.8 317.128 181.52 318.664C180.325 320.2 179.216 320.925 178.192 320.84C177.253 321.096 176.528 321.395 176.016 321.736C175.589 322.077 175.077 322.376 174.48 322.632C173.883 322.973 172.475 323.357 170.256 323.784C168.037 324.296 165.605 324.68 162.96 324.936C160.315 325.277 158.011 325.405 156.048 325.32ZM205.629 316.104C204.52 316.104 203.624 315.891 202.941 315.464C202.344 315.037 201.576 314.44 200.637 313.672C199.016 311.965 197.693 310.131 196.669 308.168C195.73 306.205 195.389 304.499 195.645 303.048C195.901 302.365 195.986 301.725 195.901 301.128C195.901 300.445 195.901 300.104 195.901 300.104C195.474 299.677 195.346 299.421 195.517 299.336C195.688 299.165 195.858 298.909 196.029 298.568C196.541 298.568 196.712 298.099 196.541 297.16C196.37 296.477 196.626 295.027 197.309 292.808C198.077 290.504 199.101 288.328 200.381 286.28C200.893 285.427 201.661 284.317 202.685 282.952C203.709 281.501 204.818 280.093 206.013 278.728C207.293 277.277 208.445 276.125 209.469 275.272C211.602 273.48 213.565 272.029 215.357 270.92C217.234 269.811 219.112 269.043 220.989 268.616C222.866 268.189 224.786 267.976 226.749 267.976C228.797 267.976 230.461 268.659 231.741 270.024C233.704 270.877 235.069 272.029 235.837 273.48C236.69 274.931 237.245 276.808 237.501 279.112C237.757 281.672 237.501 284.829 236.733 288.584C235.965 292.253 233.874 296.52 230.461 301.384C228.328 304.456 226.237 306.845 224.189 308.552C222.141 310.259 219.88 311.837 217.405 313.288C215.613 314.483 213.693 315.208 211.645 315.464C209.597 315.72 207.592 315.933 205.629 316.104ZM218.685 300.488C220.562 298.867 221.885 297.075 222.653 295.112C223.506 293.149 224.402 290.845 225.341 288.2C225.682 287.688 225.896 286.835 225.981 285.64C226.152 284.445 226.194 283.293 226.109 282.184C226.024 280.989 225.725 280.307 225.213 280.136C224.445 279.539 223.677 279.411 222.909 279.752C222.141 280.008 221.16 280.563 219.965 281.416C217.405 283.549 215.016 286.024 212.797 288.84C210.664 291.571 209.17 294.941 208.317 298.952C208.061 301.085 208.274 302.707 208.957 303.816C209.725 304.84 210.92 305.139 212.541 304.712C214.248 304.2 216.296 302.792 218.685 300.488ZM248.676 318.408C247.055 318.835 245.604 318.365 244.324 317C243.044 315.72 242.148 313.8 241.636 311.24C241.124 308.68 241.209 305.821 241.892 302.664C242.319 301.64 242.66 300.659 242.916 299.72C243.172 298.696 243.3 297.885 243.3 297.288C243.471 296.435 243.812 295.197 244.324 293.576C244.836 291.869 245.391 290.12 245.988 288.328C246.585 286.536 247.14 284.957 247.652 283.592C248.249 282.141 248.633 281.245 248.804 280.904C249.145 280.904 249.444 280.605 249.7 280.008C249.956 279.411 250.084 278.813 250.084 278.216C250.084 277.533 250.212 276.765 250.468 275.912C250.809 275.059 251.151 274.461 251.492 274.12C251.492 273.693 251.577 273.224 251.748 272.712C252.004 272.115 252.132 271.645 252.132 271.304C252.132 270.963 252.217 270.621 252.388 270.28C252.644 269.939 252.772 269.597 252.772 269.256C253.369 268.147 254.137 266.397 255.076 264.008C256.1 261.533 257.167 258.803 258.276 255.816C259.471 252.829 260.58 249.885 261.604 246.984C262.628 244.083 263.439 241.651 264.036 239.688C264.719 237.64 265.06 236.403 265.06 235.976C265.06 235.293 265.316 234.653 265.828 234.056C266.34 233.459 266.937 233.16 267.62 233.16C267.876 232.904 268.473 232.733 269.412 232.648C270.351 232.477 270.991 232.392 271.332 232.392C271.332 232.392 271.503 232.563 271.844 232.904C272.185 233.245 272.697 233.757 273.38 234.44C274.063 235.037 274.703 235.72 275.3 236.488C275.983 237.256 276.324 238.152 276.324 239.176C276.324 240.285 276.153 241.352 275.812 242.376C275.556 243.4 275.044 244.808 274.276 246.6C273.508 248.307 272.313 250.867 270.692 254.28C270.009 255.987 269.284 257.608 268.516 259.144C267.748 260.595 267.364 261.491 267.364 261.832C267.364 262.173 267.193 262.685 266.852 263.368C266.596 264.051 266.297 264.904 265.956 265.928C265.615 266.611 265.145 267.635 264.548 269C263.951 270.28 263.311 271.688 262.628 273.224C262.031 274.675 261.519 275.955 261.092 277.064C260.665 278.088 260.452 278.685 260.452 278.856C260.452 279.197 260.409 279.539 260.324 279.88C260.324 280.221 260.153 280.563 259.812 280.904C259.471 280.904 259.257 281.16 259.172 281.672C259.172 282.099 259.172 282.312 259.172 282.312C259.172 283.165 258.489 285.427 257.124 289.096C255.759 293.789 254.479 298.099 253.284 302.024C252.175 305.949 251.62 309.107 251.62 311.496C251.62 313.544 251.279 315.123 250.596 316.232C249.999 317.341 249.359 318.067 248.676 318.408ZM297.154 317.768C296.557 318.109 295.746 317.981 294.722 317.384C293.783 316.787 292.845 315.891 291.906 314.696C291.309 313.672 290.839 312.648 290.498 311.624C290.242 310.515 290.114 308.893 290.114 306.76C290.199 305.053 290.199 303.901 290.114 303.304C290.114 302.621 289.73 302.579 288.962 303.176C288.279 303.688 286.871 304.968 284.738 307.016C282.605 309.149 280.557 310.984 278.594 312.52C276.717 313.971 275.181 314.653 273.986 314.568C273.389 314.568 272.578 314.184 271.554 313.416C270.53 312.648 269.549 311.709 268.61 310.6C267.671 309.405 266.989 308.296 266.562 307.272C266.05 305.224 266.007 302.579 266.434 299.336C266.946 296.093 267.757 292.723 268.866 289.224C269.975 285.64 271.213 282.312 272.578 279.24C274.029 276.083 275.437 273.565 276.802 271.688C278.253 269.725 279.49 268.787 280.514 268.872C281.965 269.043 283.202 269.768 284.226 271.048C285.335 272.243 286.189 273.565 286.786 275.016C287.127 275.613 287.255 276.125 287.17 276.552C287.17 276.979 286.829 277.491 286.146 278.088C285.378 279.112 284.439 280.605 283.33 282.568C282.306 284.445 281.239 286.493 280.13 288.712C279.106 290.931 278.167 293.064 277.314 295.112C276.546 297.075 275.991 298.696 275.65 299.976C275.309 301.256 275.309 301.896 275.65 301.896C276.845 301.896 277.954 301.597 278.978 301C280.002 300.317 281.282 299.251 282.818 297.8C284.61 296.008 286.189 294.216 287.554 292.424C288.919 290.547 290.327 288.413 291.778 286.024C292.887 284.317 294.039 282.44 295.234 280.392C296.514 278.344 297.325 276.893 297.666 276.04C298.861 273.821 299.757 272.157 300.354 271.048C300.951 269.939 301.677 269.256 302.53 269C302.957 269 303.554 269 304.322 269C305.09 269 305.474 269 305.474 269C305.986 269.085 306.583 269.469 307.266 270.152C307.949 270.493 308.631 270.963 309.314 271.56C310.082 272.157 310.466 272.669 310.466 273.096C310.125 273.949 309.57 275.229 308.802 276.936C308.119 278.557 307.607 279.752 307.266 280.52C305.645 284.189 304.066 287.816 302.53 291.4C301.079 294.899 300.013 298.483 299.33 302.152C299.159 303.347 299.117 304.755 299.202 306.376C299.373 307.912 299.629 309.021 299.97 309.704C300.226 310.216 300.525 310.813 300.866 311.496C301.293 312.093 301.762 312.605 302.274 313.032C303.042 313.544 302.999 314.184 302.146 314.952C301.378 315.72 300.397 316.403 299.202 317C298.093 317.512 297.41 317.768 297.154 317.768ZM330.065 317.768C328.87 317.427 327.676 316.829 326.481 315.976C325.286 315.123 324.049 314.141 322.769 313.032C321.745 311.667 321.02 310.429 320.593 309.32C320.166 308.125 319.91 306.76 319.825 305.224C319.825 303.603 319.825 301.555 319.825 299.08C319.825 298.056 319.996 296.605 320.337 294.728C320.764 292.851 321.19 290.888 321.617 288.84C322.129 286.792 322.598 285 323.025 283.464C323.452 281.843 323.708 280.776 323.793 280.264C324.049 279.155 323.622 278.515 322.513 278.344C321.404 278.173 320.166 278.131 318.801 278.216C317.521 278.216 316.668 278.088 316.241 277.832C315.9 277.747 315.729 277.32 315.729 276.552C315.729 275.699 315.729 275.272 315.729 275.272C315.729 274.931 315.558 274.717 315.217 274.632C314.876 274.461 314.577 274.163 314.321 273.736C314.15 273.395 314.364 272.755 314.961 271.816C315.558 270.877 316.326 270.323 317.265 270.152C318.033 269.981 319.185 269.853 320.721 269.768C322.257 269.597 323.793 269.299 325.329 268.872C326.95 268.36 328.188 267.592 329.041 266.568C329.809 264.691 330.662 262.685 331.601 260.552C332.54 258.333 333.436 256.413 334.289 254.792C335.142 253.085 335.74 252.019 336.081 251.592C337.532 250.824 339.025 250.525 340.561 250.696C342.097 250.781 343.292 251.507 344.145 252.872C344.572 253.469 344.913 253.896 345.169 254.152C345.51 254.408 345.638 254.792 345.553 255.304C345.553 255.816 345.212 256.755 344.529 258.12C343.932 259.4 342.908 261.405 341.457 264.136C341.03 264.989 340.646 265.757 340.305 266.44C339.964 267.037 339.793 267.336 339.793 267.336C340.134 267.421 340.646 267.464 341.329 267.464C342.012 267.464 342.865 267.421 343.889 267.336C344.828 267.165 345.852 267.037 346.961 266.952C348.07 266.781 349.052 266.781 349.905 266.952C351.868 266.952 353.318 267.507 354.257 268.616C355.196 269.725 355.708 271.133 355.793 272.84C355.964 273.779 355.622 274.589 354.769 275.272C353.916 275.955 352.337 276.296 350.033 276.296C349.265 276.296 348.156 276.339 346.705 276.424C345.254 276.509 343.761 276.595 342.225 276.68C340.689 276.765 339.366 276.893 338.257 277.064C337.233 277.149 336.721 277.277 336.721 277.448C336.465 277.619 336.038 278.301 335.441 279.496C334.929 280.605 334.374 281.971 333.777 283.592C333.265 285.213 332.796 286.749 332.369 288.2C331.772 291.101 331.345 293.917 331.089 296.648C330.833 299.379 330.79 301.768 330.961 303.816C331.217 305.779 331.729 307.187 332.497 308.04C333.265 308.808 334.417 308.808 335.953 308.04C337.574 307.187 339.068 306.205 340.433 305.096C341.969 303.816 343.292 303.432 344.401 303.944C345.51 304.371 346.193 305.309 346.449 306.76C346.79 308.125 346.406 309.619 345.297 311.24C344.273 312.861 342.822 314.227 340.945 315.336C339.068 316.445 337.148 317.213 335.185 317.64C333.222 318.152 331.516 318.195 330.065 317.768ZM359.768 312.776C359.427 312.776 358.701 312.52 357.592 312.008C356.483 311.496 355.928 311.24 355.928 311.24C355.928 310.899 355.8 310.472 355.544 309.96C355.373 309.448 355.288 309.021 355.288 308.68C354.691 308.339 354.093 307.784 353.496 307.016C352.899 306.248 352.771 305.395 353.112 304.456C353.624 303.517 354.307 302.109 355.16 300.232C356.099 298.269 357.08 296.093 358.104 293.704C359.213 291.229 360.237 288.84 361.176 286.536C362.115 284.232 362.925 282.269 363.608 280.648C364.291 278.941 364.675 277.917 364.76 277.576C364.76 277.235 364.803 276.637 364.888 275.784C365.059 274.931 365.613 274.205 366.552 273.608C367.661 272.84 368.813 272.797 370.008 273.48C371.203 274.163 372.227 275.357 373.08 277.064C373.933 278.685 374.36 280.605 374.36 282.824C374.36 283.421 373.933 284.957 373.08 287.432C372.227 289.821 371.075 292.68 369.624 296.008C368.259 299.336 366.723 302.707 365.016 306.12C363.736 308.595 362.755 310.344 362.072 311.368C361.475 312.307 360.707 312.776 359.768 312.776ZM377.176 263.752C376.152 263.752 374.915 263.283 373.464 262.344C372.099 261.405 370.861 260.211 369.752 258.76C368.643 257.309 368.088 255.773 368.088 254.152C368.088 253.725 368.472 252.957 369.24 251.848C370.008 250.653 370.733 249.501 371.416 248.392C372.184 247.283 372.568 246.643 372.568 246.472C373.251 246.472 374.061 246.6 375 246.856C375.939 247.112 376.707 247.411 377.304 247.752C378.243 249.885 379.48 251.72 381.016 253.256C382.552 254.707 383.32 256.371 383.32 258.248C383.32 260.125 382.851 261.533 381.912 262.472C380.973 263.325 379.395 263.752 377.176 263.752ZM389.629 316.104C388.52 316.104 387.624 315.891 386.941 315.464C386.344 315.037 385.576 314.44 384.637 313.672C383.016 311.965 381.693 310.131 380.669 308.168C379.73 306.205 379.389 304.499 379.645 303.048C379.901 302.365 379.986 301.725 379.901 301.128C379.901 300.445 379.901 300.104 379.901 300.104C379.474 299.677 379.346 299.421 379.517 299.336C379.688 299.165 379.858 298.909 380.029 298.568C380.541 298.568 380.712 298.099 380.541 297.16C380.37 296.477 380.626 295.027 381.309 292.808C382.077 290.504 383.101 288.328 384.381 286.28C384.893 285.427 385.661 284.317 386.685 282.952C387.709 281.501 388.818 280.093 390.013 278.728C391.293 277.277 392.445 276.125 393.469 275.272C395.602 273.48 397.565 272.029 399.357 270.92C401.234 269.811 403.112 269.043 404.989 268.616C406.866 268.189 408.786 267.976 410.749 267.976C412.797 267.976 414.461 268.659 415.741 270.024C417.704 270.877 419.069 272.029 419.837 273.48C420.69 274.931 421.245 276.808 421.501 279.112C421.757 281.672 421.501 284.829 420.733 288.584C419.965 292.253 417.874 296.52 414.461 301.384C412.328 304.456 410.237 306.845 408.189 308.552C406.141 310.259 403.88 311.837 401.405 313.288C399.613 314.483 397.693 315.208 395.645 315.464C393.597 315.72 391.592 315.933 389.629 316.104ZM402.685 300.488C404.562 298.867 405.885 297.075 406.653 295.112C407.506 293.149 408.402 290.845 409.341 288.2C409.682 287.688 409.896 286.835 409.981 285.64C410.152 284.445 410.194 283.293 410.109 282.184C410.024 280.989 409.725 280.307 409.213 280.136C408.445 279.539 407.677 279.411 406.909 279.752C406.141 280.008 405.16 280.563 403.965 281.416C401.405 283.549 399.016 286.024 396.797 288.84C394.664 291.571 393.17 294.941 392.317 298.952C392.061 301.085 392.274 302.707 392.957 303.816C393.725 304.84 394.92 305.139 396.541 304.712C398.248 304.2 400.296 302.792 402.685 300.488ZM433.956 312.648C433.615 312.648 432.804 312.349 431.524 311.752C430.244 311.069 429.433 310.557 429.092 310.216C428.495 309.533 428.111 308.808 427.94 308.04C427.769 307.187 427.684 305.565 427.684 303.176C427.684 300.445 428.239 297.373 429.348 293.96C430.457 290.461 432.335 285.811 434.98 280.008L440.228 269.384C440.655 268.787 441.039 268.275 441.38 267.848C441.721 267.336 442.105 266.867 442.532 266.44C442.703 266.44 442.916 266.44 443.172 266.44C443.513 266.44 443.769 266.483 443.94 266.568C444.708 266.653 445.903 267.123 447.524 267.976C449.231 268.829 450.255 270.109 450.596 271.816C450.596 272.925 450.425 274.248 450.084 275.784C449.743 277.235 448.719 279.155 447.012 281.544C446.329 282.397 445.647 283.635 444.964 285.256C444.367 286.877 443.812 288.413 443.3 289.864C443.215 290.035 442.959 290.461 442.532 291.144C442.191 291.741 441.849 292.381 441.508 293.064C441.167 293.661 440.996 294.045 440.996 294.216L440.484 295.368L445.988 289.992C449.828 286.152 453.071 283.421 455.716 281.8C458.361 280.179 460.58 279.496 462.372 279.752C464.249 280.008 465.743 281.075 466.852 282.952C467.449 283.805 467.876 284.744 468.132 285.768C468.388 286.707 468.559 287.816 468.644 289.096C468.729 290.376 468.687 291.997 468.516 293.96V301.256C470.137 300.829 471.375 300.488 472.228 300.232C473.081 299.891 473.935 299.592 474.788 299.336C475.471 299.165 476.153 298.995 476.836 298.824C477.604 298.653 478.543 298.525 479.652 298.44C479.567 299.549 479.097 300.915 478.244 302.536C477.391 304.157 476.324 305.779 475.044 307.4C473.849 309.021 472.527 310.387 471.076 311.496C469.711 312.605 468.431 313.16 467.236 313.16C466.127 313.16 464.847 312.819 463.396 312.136C461.945 311.368 460.708 309.917 459.684 307.784C459.343 306.675 459.001 305.395 458.66 303.944C458.319 302.493 458.148 300.957 458.148 299.336V293.704C458.148 293.192 458.105 292.851 458.02 292.68C458.02 292.424 457.977 292.296 457.892 292.296C457.551 292.296 456.441 293.192 454.564 294.984C452.772 296.776 450.937 298.653 449.06 300.616C445.135 304.712 441.849 307.741 439.204 309.704C436.644 311.667 434.895 312.648 433.956 312.648Z" fill="black"/>
<path d="M1038.42 499.742C1035.18 498.56 1031.68 498.211 1028.26 498.728C1027.86 498.865 1027.51 499.123 1027.27 499.467C1027.02 499.811 1026.89 500.224 1026.89 500.647C1026.89 501.069 1027.02 501.482 1027.27 501.826C1027.51 502.17 1027.86 502.428 1028.26 502.566C1035.21 505.609 1047.13 503.47 1038.42 499.742ZM1030.35 502.483C1025.65 500.592 1029.96 499.029 1031.45 499.029C1037.57 499.029 1041.5 501.496 1038.67 503.032C1035.91 503.808 1032.97 503.605 1030.35 502.456V502.483ZM1103.7 482.059C1103.21 482.148 1102.75 482.378 1102.39 482.72C1102.03 483.062 1101.78 483.501 1101.67 483.984C1101.55 484.468 1101.58 484.973 1101.75 485.44C1101.92 485.906 1102.23 486.313 1102.62 486.61C1104.02 487.44 1105.57 487.978 1107.18 488.19C1108.79 488.402 1110.43 488.284 1111.99 487.844C1114.74 487.158 1116.96 485.102 1114.74 483.32C1114.71 483.265 1107.76 480.771 1103.7 482.059ZM1109.44 487.542C1107.92 487.636 1106.41 487.507 1104.93 487.158C1100.81 485.431 1102.68 482.58 1106.36 482.58C1107.05 482.58 1112.87 482.58 1114.27 483.841C1116.41 485.76 1112.1 487.542 1109.44 487.542ZM1147.84 483.786C1146.58 484.718 1147.68 486.528 1148.78 486.884C1149.87 487.241 1153.14 487.679 1153.61 486.089C1154.27 483.704 1149.13 482.882 1147.84 483.786ZM1148.8 485.98C1147.62 485.376 1147.4 484.006 1149.93 484.088C1152.46 484.17 1155.64 486.829 1150.75 486.418C1150.07 486.407 1149.4 486.257 1148.78 485.98H1148.8ZM1014.17 264.85C1014.11 264.85 1014.05 264.873 1014.01 264.914C1013.97 264.955 1013.95 265.011 1013.95 265.069C1013.95 265.127 1013.97 265.183 1014.01 265.224C1014.05 265.265 1014.11 265.288 1014.17 265.288C1016.12 265.288 1028.26 267.454 1027.9 264.85C1027.9 264.247 1021.8 258.572 1022.41 258.407C1023.01 258.243 1031.06 260.491 1032.82 260.491C1033.15 260.491 1033.23 259.943 1032.82 259.915H1032.19C1034.09 257.96 1035.46 255.554 1036.17 252.924C1036.9 255.364 1038.03 257.67 1039.5 259.751C1039.58 259.828 1039.69 259.871 1039.8 259.871C1039.91 259.871 1040.02 259.828 1040.1 259.751C1040.38 259.586 1041.01 258.709 1044.39 255.885C1042.3 263.863 1041.64 264.11 1042.38 264.301C1046.33 264.826 1050.34 264.622 1054.22 263.698C1054.26 263.683 1054.3 263.655 1054.32 263.618C1054.35 263.581 1054.36 263.538 1054.36 263.493C1054.36 263.448 1054.35 263.404 1054.32 263.368C1054.3 263.331 1054.26 263.303 1054.22 263.287C1052.57 263.534 1044.8 265.097 1043.62 263.287C1042.79 262.026 1045.21 256.516 1045.59 254.871C1045.61 254.818 1045.62 254.763 1045.61 254.709C1045.6 254.655 1045.58 254.602 1045.56 254.555C1045.53 254.509 1045.49 254.469 1045.44 254.438C1045.4 254.407 1045.35 254.386 1045.29 254.377C1044.61 254.185 1041.39 258.681 1039.8 258.215C1038.2 257.749 1037.05 252.568 1036.75 251.033C1036.75 250.676 1036.06 250.621 1036.01 251.033C1035.5 254.294 1033.98 257.314 1031.67 259.668C1028.3 259.156 1024.98 258.349 1021.75 257.256C1021.68 257.235 1021.61 257.235 1021.54 257.257C1021.47 257.278 1021.41 257.32 1021.37 257.376C1021.32 257.432 1021.29 257.501 1021.29 257.572C1021.28 257.644 1021.3 257.715 1021.34 257.777C1022.16 258.928 1027.38 264.493 1027.11 265.069C1026.83 265.645 1016.56 264.877 1014.17 264.85ZM1129.55 63.2944C1128.85 65.4247 1127.72 67.3861 1126.22 69.0516C1125.7 69.6821 1124.44 70.6416 1124.55 71.5738C1124.74 73.2187 1128.42 73.9315 1129.63 73.9863C1129.69 73.9863 1129.76 73.9603 1129.8 73.914C1129.85 73.8677 1129.88 73.805 1129.88 73.7395C1129.88 73.6741 1129.85 73.6113 1129.8 73.5651C1129.76 73.5188 1129.69 73.4928 1129.63 73.4928C1128.54 73.3692 1127.5 72.9937 1126.58 72.3962C1124.44 70.5868 1128.36 69.8192 1129.9 63.4041C1129.93 63.3784 1129.95 63.3453 1129.97 63.3082C1129.98 63.2711 1129.98 63.2314 1129.97 63.1932C1129.96 63.155 1129.95 63.1196 1129.92 63.0908C1129.89 63.062 1129.86 63.0407 1129.82 63.0292C1129.79 63.0177 1129.75 63.0164 1129.71 63.0254C1129.67 63.0345 1129.63 63.0535 1129.61 63.0805C1129.58 63.1076 1129.56 63.1416 1129.55 63.1792C1129.54 63.2168 1129.54 63.2566 1129.55 63.2944ZM1135.97 81.3609C1138.2 81.6234 1140.45 81.0346 1142.27 79.7127C1144.08 78.3907 1145.33 76.4333 1145.75 74.233C1145.75 73.767 1145.18 73.438 1144.98 73.904C1143.34 77.6325 1140.53 81.0319 1136.06 80.84C1135.75 80.84 1135.67 81.3061 1135.97 81.3609ZM1124.44 54.7957C1123.62 54.8977 1122.83 55.176 1122.13 55.6114C1121.42 56.0469 1120.82 56.6291 1120.37 57.3179C1120.32 57.385 1120.29 57.462 1120.28 57.5432C1120.26 57.6243 1120.27 57.7076 1120.29 57.7868C1120.31 57.866 1120.35 57.939 1120.41 58.0005C1120.46 58.0621 1120.53 58.1105 1120.61 58.1421C1120.68 58.1738 1120.77 58.1879 1120.85 58.1835C1120.93 58.1791 1121.01 58.1562 1121.08 58.1165C1121.15 58.0768 1121.22 58.0214 1121.27 57.9543C1121.31 57.8873 1121.35 57.8103 1121.36 57.7292C1121.69 57.1205 1122.15 56.5931 1122.71 56.1853C1123.27 55.7775 1123.92 55.4995 1124.6 55.3715C1124.67 55.3428 1124.72 55.2903 1124.76 55.2239C1124.79 55.1574 1124.79 55.0816 1124.77 55.0107C1124.75 54.9399 1124.71 54.8789 1124.65 54.8393C1124.58 54.7996 1124.51 54.7842 1124.44 54.7957ZM1139.02 54.8232C1139.87 54.9651 1140.67 55.2825 1141.39 55.7547C1142.1 56.227 1142.71 56.8436 1143.17 57.5647C1143.23 57.6665 1143.33 57.7395 1143.45 57.7678C1143.56 57.7961 1143.69 57.7773 1143.79 57.7154C1143.89 57.6536 1143.96 57.5539 1143.99 57.4383C1144.02 57.3226 1144 57.2004 1143.94 57.0986C1143.41 56.2704 1142.68 55.5881 1141.81 55.1141C1140.95 54.64 1139.98 54.3892 1139 54.3845C1138.64 54.3845 1138.64 54.7957 1139.02 54.8232ZM1122.84 61.7592C1122.47 62.8465 1122.26 63.9825 1122.21 65.1312C1122.21 65.233 1122.25 65.3306 1122.32 65.4026C1122.4 65.4746 1122.49 65.515 1122.6 65.515C1122.7 65.515 1122.8 65.4746 1122.87 65.4026C1122.94 65.3306 1122.98 65.233 1122.98 65.1312C1123.25 64.0668 1123.45 62.9863 1123.58 61.8962C1123.58 61.8075 1123.55 61.7219 1123.49 61.6541C1123.44 61.5862 1123.36 61.5403 1123.27 61.5241C1123.18 61.508 1123.09 61.5226 1123.01 61.5654C1122.94 61.6083 1122.88 61.6767 1122.84 61.7592ZM1138.64 65.049C1138.9 63.7488 1139.04 62.4271 1139.05 61.1012C1139.05 60.6352 1138.28 60.5255 1138.2 61.1012C1137.92 62.3612 1137.78 63.6486 1137.79 64.9393C1137.8 65.0389 1137.84 65.1326 1137.91 65.2047C1137.98 65.2769 1138.07 65.3232 1138.17 65.336C1138.27 65.3488 1138.37 65.3273 1138.45 65.2751C1138.54 65.2229 1138.6 65.1431 1138.64 65.049ZM1392.83 452.478C1389.2 454.337 1385.99 456.922 1383.4 460.072C1380.44 452.862 1383.73 446.502 1387.5 440.306C1387.54 440.223 1387.55 440.129 1387.53 440.038C1387.52 439.947 1387.47 439.863 1387.4 439.8C1387.34 439.736 1387.25 439.695 1387.16 439.682C1387.07 439.67 1386.97 439.687 1386.89 439.73C1381.01 443.914 1376.09 449.32 1372.5 455.576C1372.5 454.534 1372.5 453.52 1372.31 452.451C1372.31 452.388 1372.29 452.327 1372.27 452.269C1372.24 452.212 1372.21 452.161 1372.16 452.12C1372.11 452.078 1372.06 452.047 1372 452.029C1371.94 452.01 1371.87 452.004 1371.81 452.012C1371.37 452.012 1371.43 452.012 1370.49 455.576C1369.67 452.835 1368.84 450.093 1368.05 447.544C1368.05 447.16 1367.25 447.078 1367.17 447.544C1366.86 449.586 1366.82 451.658 1367.03 453.712C1362.53 450.617 1358.21 447.267 1354.09 443.678C1354.01 443.627 1353.91 443.605 1353.81 443.617C1353.71 443.628 1353.62 443.672 1353.55 443.742C1353.48 443.812 1353.44 443.903 1353.43 444.001C1353.41 444.098 1353.44 444.197 1353.49 444.281C1357.32 448.489 1360.86 452.959 1364.06 457.66C1364.28 457.989 1364.81 457.66 1364.59 457.358C1355.8 444.007 1353.41 445.542 1367.33 455.028C1367.69 455.275 1368.02 454.863 1367.97 454.507C1367.76 452.999 1367.7 451.475 1367.8 449.956L1370.03 457.386C1370.06 457.501 1370.14 457.597 1370.25 457.653C1370.36 457.71 1370.49 457.722 1370.6 457.687C1370.96 457.687 1370.9 457.44 1371.51 455.22V457.166C1371.5 457.273 1371.53 457.378 1371.59 457.465C1371.66 457.552 1371.75 457.615 1371.85 457.644C1371.95 457.673 1372.06 457.666 1372.16 457.624C1372.26 457.582 1372.34 457.507 1372.39 457.413C1375.61 451.378 1380.04 446.068 1385.41 441.814C1382.14 447.434 1379.09 454.178 1382.66 460.346C1382.76 460.566 1382.91 460.756 1383.1 460.895C1383.19 460.922 1383.29 460.923 1383.38 460.899C1383.47 460.875 1383.56 460.826 1383.62 460.758C1385.76 458.405 1388.18 456.324 1390.82 454.562C1389.25 456.499 1388.4 458.923 1388.43 461.416C1388.43 461.799 1389.12 461.937 1389.15 461.416C1389.5 458.22 1390.97 455.251 1393.29 453.027C1393.73 452.807 1393.27 452.314 1392.83 452.478ZM1404.25 220.876C1399.83 221.661 1395.81 223.946 1392.88 227.346C1392.6 223.131 1393.27 218.907 1394.83 214.982C1394.86 214.894 1394.86 214.799 1394.82 214.713C1394.79 214.627 1394.73 214.554 1394.65 214.507C1394.57 214.459 1394.48 214.44 1394.39 214.451C1394.3 214.463 1394.21 214.505 1394.15 214.571C1390 219.039 1388.95 225.783 1388.32 225.948C1388.32 225.948 1386.67 224.659 1386.48 224.522C1383.39 222.37 1380.05 220.594 1376.54 219.231C1376.1 219.067 1375.85 219.752 1376.23 219.971C1380 222.242 1383.24 225.3 1385.71 228.936C1385.88 229.21 1386.34 228.936 1386.15 228.662C1384.34 225.907 1382.11 223.455 1379.53 221.397C1382.78 222.936 1385.8 224.91 1388.51 227.264C1388.57 227.314 1388.63 227.35 1388.7 227.368C1388.77 227.386 1388.84 227.385 1388.91 227.365C1388.98 227.346 1389.05 227.309 1389.1 227.257C1389.15 227.206 1389.18 227.142 1389.2 227.072C1389.81 223.506 1391.2 220.118 1393.27 217.148C1392.17 220.787 1391.78 224.604 1392.14 228.388C1392.14 228.717 1392.63 229.018 1392.88 228.689C1395.42 225.403 1398.99 223.058 1403.02 222.028C1401.86 223.197 1400.95 224.585 1400.33 226.109C1399.71 227.634 1399.4 229.266 1399.42 230.91C1399.42 231.008 1399.46 231.102 1399.53 231.172C1399.6 231.241 1399.69 231.28 1399.79 231.28C1399.89 231.28 1399.98 231.241 1400.05 231.172C1400.12 231.102 1400.16 231.008 1400.16 230.91C1400.38 227.349 1401.99 224.014 1404.64 221.616C1405 221.287 1404.61 220.821 1404.25 220.876ZM1000.57 217.751C1002.49 213.255 1004.17 198.56 1001.09 192.2C1000.72 191.157 1000.1 190.22 999.286 189.466C998.473 188.712 997.491 188.164 996.422 187.868C993.318 187.293 994.114 183.811 994.142 181.261C994.142 174.682 994.142 150.694 992.741 145.485C990.625 138.165 983.95 130.982 975.709 131.997C973.374 132.298 972.962 133.587 972.797 130.763C972.797 127.144 973.291 80.2369 965.984 72.8623C960.105 66.9406 951.205 65.3231 944.557 71.0255C935.684 78.6468 935.354 92.9575 934.09 103.924C932.241 117.431 932.472 131.142 934.777 144.58C927.854 143.593 924.201 150.502 923.102 156.423C921.405 166.237 921.063 176.235 922.086 186.141C922.278 188.362 924.53 199.849 924.256 200.424C923.651 201.603 919.778 201.028 914.888 204.783C903.9 213.255 903.9 234.94 912.581 246.756C915.328 250.402 919.283 252.458 919.805 257.256C921.261 274.061 943.705 284.452 961.644 283.876C962.385 302.683 963.621 321.462 964.143 340.269C964.162 340.323 964.196 340.371 964.243 340.405C964.29 340.439 964.347 340.457 964.404 340.457C964.462 340.457 964.519 340.439 964.566 340.405C964.612 340.371 964.647 340.323 964.665 340.269C964.143 321.489 964.253 302.573 962.578 283.848C974.445 283.19 985.79 278.091 992.301 267.646C997.795 258.188 998.674 245.714 997.575 235.132C996.933 232.317 996.501 229.458 996.284 226.578C996.477 223.097 999.279 220.794 1000.57 217.751ZM983.401 201.302C976.518 211.658 969.052 221.617 961.039 231.129C961.314 240.204 961.863 270.607 963.374 278.174C963.356 278.228 963.321 278.276 963.274 278.31C963.228 278.344 963.171 278.362 963.113 278.362C963.055 278.362 962.999 278.344 962.952 278.31C962.905 278.276 962.87 278.228 962.852 278.174C961.267 269.489 960.449 260.682 960.407 251.855C955.392 250.017 950.783 247.224 946.837 243.631C943.238 240.505 938.376 236.722 936.673 232.116C936.508 231.678 937.195 231.403 937.442 231.815C940.013 235.931 943.275 239.575 947.084 242.589C950.966 246.184 955.484 249.029 960.407 250.978C960.407 246.591 959.281 212.597 958.924 200.095C954.776 196.833 950.683 193.543 946.782 189.897C943.76 187.156 939.914 183.756 938.733 179.589C938.596 179.15 939.282 178.849 939.475 179.287C943.403 187.293 951.864 193.626 958.869 199.109C958.869 197.847 956.864 138.795 956.122 110.448C956.15 110.32 956.222 110.206 956.324 110.124C956.427 110.042 956.554 109.997 956.685 109.997C956.816 109.997 956.944 110.042 957.046 110.124C957.148 110.206 957.22 110.32 957.248 110.448C957.88 127.555 958.375 144.635 958.896 161.742C962.472 159.035 965.533 155.711 967.934 151.927C968.018 151.828 968.134 151.761 968.262 151.739C968.39 151.717 968.522 151.741 968.634 151.807C968.746 151.873 968.831 151.976 968.874 152.098C968.917 152.221 968.915 152.354 968.868 152.476C966.268 156.527 962.877 160.014 958.896 162.729C959.199 173.146 960.6 217.778 960.984 229.676C968.511 220.273 975.434 210.486 982.412 200.562C982.824 200.095 983.95 200.644 983.401 201.274V201.302Z" fill="black"/>
<path d="M743.092 475.367C741.097 474.639 738.951 474.424 736.852 474.742C736.606 474.826 736.392 474.986 736.241 475.198C736.09 475.41 736.009 475.664 736.009 475.925C736.009 476.185 736.09 476.439 736.241 476.651C736.392 476.863 736.606 477.023 736.852 477.107C741.119 478.982 748.438 477.665 743.092 475.367ZM738.134 477.056C735.25 475.891 737.897 474.928 738.808 474.928C742.569 474.928 744.981 476.448 743.244 477.394C741.551 477.873 739.744 477.747 738.134 477.04V477.056ZM783.162 464.47C782.861 464.525 782.584 464.667 782.362 464.877C782.141 465.088 781.986 465.359 781.916 465.657C781.846 465.955 781.865 466.266 781.969 466.554C782.074 466.841 782.259 467.092 782.504 467.275C783.361 467.786 784.313 468.118 785.301 468.248C786.29 468.379 787.295 468.307 788.255 468.035C789.941 467.613 791.307 466.346 789.941 465.248C789.925 465.214 785.658 463.676 783.162 464.47ZM786.687 467.849C785.758 467.907 784.826 467.827 783.921 467.613C781.391 466.548 782.538 464.791 784.798 464.791C785.219 464.791 788.795 464.791 789.655 465.568C790.97 466.751 788.322 467.849 786.687 467.849ZM810.263 465.535C809.487 466.109 810.162 467.224 810.837 467.444C811.511 467.663 813.518 467.934 813.805 466.954C814.209 465.484 811.056 464.977 810.263 465.535ZM810.853 466.886C810.128 466.515 809.993 465.67 811.545 465.721C813.096 465.771 815.053 467.41 812.051 467.157C811.632 467.149 811.219 467.057 810.837 466.886H810.853ZM728.2 330.619C728.165 330.619 728.13 330.634 728.105 330.659C728.08 330.684 728.065 330.719 728.065 330.754C728.065 330.79 728.08 330.825 728.105 330.85C728.13 330.875 728.165 330.89 728.2 330.89C729.398 330.89 736.852 332.224 736.633 330.619C736.633 330.248 732.889 326.751 733.26 326.649C733.631 326.548 738.572 327.933 739.651 327.933C739.854 327.933 739.904 327.595 739.651 327.578H739.264C740.43 326.373 741.272 324.891 741.709 323.27C742.157 324.774 742.846 326.195 743.749 327.477C743.8 327.525 743.866 327.551 743.935 327.551C744.004 327.551 744.07 327.525 744.12 327.477C744.289 327.376 744.677 326.835 746.751 325.095C745.47 330.011 745.065 330.163 745.52 330.281C747.945 330.605 750.409 330.479 752.789 329.91C752.815 329.9 752.837 329.883 752.853 329.86C752.868 329.838 752.877 329.811 752.877 329.783C752.877 329.755 752.868 329.729 752.853 329.706C752.837 329.683 752.815 329.666 752.789 329.656C751.777 329.808 747.004 330.771 746.279 329.656C745.773 328.879 747.257 325.484 747.493 324.47C747.504 324.438 747.507 324.404 747.503 324.37C747.498 324.337 747.487 324.304 747.47 324.276C747.452 324.247 747.429 324.222 747.401 324.203C747.373 324.184 747.341 324.171 747.308 324.166C746.886 324.048 744.913 326.818 743.935 326.531C742.957 326.244 742.249 323.051 742.063 322.105C742.063 321.885 741.641 321.851 741.608 322.105C741.297 324.114 740.365 325.976 738.943 327.426C736.874 327.111 734.837 326.613 732.855 325.94C732.813 325.927 732.768 325.927 732.726 325.94C732.684 325.953 732.647 325.979 732.619 326.014C732.592 326.048 732.576 326.09 732.573 326.135C732.57 326.179 732.58 326.223 732.602 326.261C733.108 326.97 736.312 330.4 736.144 330.754C735.975 331.109 729.668 330.636 728.2 330.619ZM967.676 303.521C964.96 304.005 962.494 305.413 960.695 307.508C960.523 304.911 960.932 302.308 961.892 299.889C961.909 299.835 961.907 299.777 961.887 299.723C961.867 299.67 961.829 299.626 961.781 299.596C961.732 299.567 961.675 299.555 961.619 299.562C961.562 299.569 961.51 299.595 961.47 299.636C958.924 302.389 958.283 306.545 957.895 306.647C957.895 306.647 956.883 305.853 956.765 305.768C954.867 304.442 952.817 303.347 950.66 302.508C950.39 302.406 950.239 302.829 950.475 302.964C952.79 304.363 954.774 306.247 956.293 308.488C956.394 308.657 956.681 308.488 956.563 308.319C955.452 306.621 954.081 305.11 952.498 303.842C954.492 304.791 956.347 306.007 958.013 307.458C958.045 307.489 958.084 307.511 958.127 307.522C958.17 307.533 958.215 307.532 958.258 307.52C958.301 307.508 958.339 307.485 958.37 307.453C958.402 307.422 958.424 307.382 958.435 307.339C958.809 305.142 959.661 303.054 960.931 301.224C960.256 303.466 960.021 305.818 960.239 308.15C960.239 308.353 960.543 308.539 960.695 308.336C962.254 306.311 964.444 304.866 966.918 304.231C966.207 304.952 965.645 305.807 965.266 306.746C964.887 307.686 964.697 308.691 964.708 309.705C964.708 309.765 964.732 309.823 964.775 309.866C964.818 309.909 964.876 309.933 964.936 309.933C964.996 309.933 965.054 309.909 965.097 309.866C965.14 309.823 965.164 309.765 965.164 309.705C965.301 307.51 966.287 305.455 967.913 303.977C968.132 303.775 967.896 303.488 967.676 303.521ZM719.852 301.595C721.033 298.825 722.062 289.77 720.173 285.85C719.944 285.208 719.563 284.63 719.064 284.165C718.565 283.701 717.962 283.363 717.306 283.181C715.4 282.826 715.889 280.681 715.906 279.109C715.906 275.055 715.906 260.273 715.046 257.063C713.748 252.552 709.649 248.126 704.59 248.751C703.157 248.937 702.904 249.731 702.802 247.991C702.802 245.761 703.106 216.855 698.62 212.311C695.011 208.662 689.547 207.665 685.466 211.179C680.018 215.875 679.816 224.694 679.04 231.452C677.905 239.776 678.047 248.224 679.462 256.505C675.212 255.897 672.969 260.154 672.295 263.804C671.253 269.851 671.043 276.012 671.671 282.117C671.789 283.485 673.171 290.564 673.003 290.918C672.632 291.645 670.254 291.29 667.252 293.605C660.506 298.825 660.506 312.188 665.835 319.469C667.522 321.716 669.95 322.983 670.271 325.94C671.165 336.296 684.943 342.698 695.955 342.344C696.411 353.933 697.17 365.505 697.49 377.095C697.501 377.128 697.523 377.158 697.551 377.179C697.58 377.2 697.615 377.211 697.65 377.211C697.686 377.211 697.72 377.2 697.749 377.179C697.778 377.158 697.799 377.128 697.811 377.095C697.49 365.522 697.558 353.865 696.529 342.327C703.814 341.921 710.779 338.779 714.776 332.342C718.149 326.514 718.689 318.827 718.014 312.306C717.62 310.571 717.355 308.81 717.222 307.035C717.34 304.89 719.06 303.471 719.852 301.595ZM709.312 291.459C705.087 297.841 700.504 303.978 695.584 309.84C695.753 315.432 696.09 334.167 697.018 338.83C697.007 338.864 696.985 338.893 696.957 338.914C696.928 338.935 696.893 338.946 696.858 338.946C696.822 338.946 696.788 338.935 696.759 338.914C696.73 338.893 696.709 338.864 696.697 338.83C695.724 333.478 695.222 328.051 695.197 322.612C692.118 321.479 689.288 319.758 686.865 317.543C684.656 315.617 681.671 313.286 680.626 310.448C680.524 310.178 680.946 310.009 681.098 310.262C682.677 312.799 684.679 315.044 687.017 316.901C689.401 319.117 692.174 320.87 695.197 322.071C695.197 319.368 694.505 298.419 694.286 290.716C691.739 288.705 689.227 286.678 686.832 284.431C684.977 282.742 682.616 280.647 681.89 278.079C681.806 277.809 682.228 277.623 682.346 277.893C684.757 282.826 689.952 286.729 694.252 290.107C694.252 289.33 693.021 252.941 692.566 235.472C692.583 235.394 692.627 235.323 692.69 235.273C692.753 235.222 692.831 235.195 692.911 235.195C692.992 235.195 693.07 235.222 693.133 235.273C693.196 235.323 693.24 235.394 693.257 235.472C693.645 246.014 693.949 256.539 694.269 267.081C696.464 265.413 698.343 263.365 699.817 261.033C699.869 260.972 699.94 260.931 700.019 260.917C700.097 260.904 700.178 260.918 700.247 260.959C700.316 260.999 700.368 261.063 700.394 261.138C700.42 261.214 700.419 261.296 700.391 261.371C698.794 263.867 696.712 266.016 694.269 267.689C694.455 274.109 695.315 301.612 695.551 308.944C700.172 303.15 704.421 297.118 708.705 291.003C708.958 290.716 709.649 291.054 709.312 291.442V291.459Z" fill="black"/>
<path d="M1389.72 155.327C1398.65 143.566 1402.17 128.433 1404.47 114.204C1407.13 97.8194 1407.7 81.1642 1406.15 64.6378C1405.63 59.1548 1404.97 52.9316 1401.04 48.6C1399.14 46.4891 1396.59 45.0635 1394.83 42.8703C1391.7 39.087 1393.32 33.0009 1393.27 28.3951C1393.27 22.1719 1391.98 15.373 1387.39 10.7947C1382.8 6.21636 1375.38 4.73595 1369.34 5.03751C1366.59 5.21767 1363.92 6.0289 1361.54 7.40795C1359.16 8.78701 1357.13 10.6966 1355.6 12.9879C1354.11 15.3895 1352.92 17.9682 1352.06 20.6641C1349.31 27.9291 1342.12 28.6144 1338.57 35.1392C1337.25 38.2233 1336.38 41.4831 1335.99 44.8167C1335.14 48.2984 1329.4 55.7827 1328.9 56.7971C1293.44 56.3311 1277.7 56.523 1277.7 56.523C1277.67 55.0381 1277.34 53.5737 1276.73 52.2188C1275.19 49.2658 1274.11 46.0948 1273.52 42.8154C1271.02 36.7567 1266.27 33.7136 1260.39 31.356C1254.04 28.8064 1248.6 23.1314 1241.32 23.5701C1234.78 23.7616 1228.53 26.3471 1223.77 30.8351C1219.07 35.9891 1219.18 40.0465 1216.77 44.1588C1215.82 45.6352 1214.96 47.1637 1214.18 48.7371C1213.22 51.5779 1212.55 54.5077 1212.18 57.4825C1199.41 58.9142 1186.55 59.3725 1173.72 58.8532C1174.38 55.2345 1175.45 51.6431 1176.47 48.1614C1183.17 46.7358 1183.8 29.9852 1169.35 28.3951C1168.44 26.4487 1169.68 24.8312 1171.05 23.5701C1170.07 23.3814 1169.05 23.4405 1168.09 23.742C1167.13 24.0434 1166.26 24.5778 1165.56 25.2972C1165.87 24.2883 1165.96 23.2259 1165.83 22.1793C1165.7 21.1327 1165.35 20.1254 1164.8 19.2228C1164.25 18.3203 1163.52 17.5427 1162.65 16.9408C1161.79 16.3389 1160.8 15.9261 1159.76 15.7294C1160.73 17.0256 1161.35 18.5507 1161.55 20.1557C1161.75 21.7607 1161.54 23.3906 1160.92 24.886C1158.86 18.9095 1146.74 10.3834 1131.19 11.809C1132.46 13.262 1133.17 15.839 1130.97 16.5792C1120.29 20.1432 1114.19 14.2216 1114.3 13.5362C1111.22 23.6249 1115.34 25.5714 1114.46 26.0649C1112.14 27.6552 1110.32 29.8772 1109.23 32.4673C1108.13 35.0573 1107.8 37.9066 1108.28 40.6771C1108.72 39.8579 1109.33 39.1354 1110.05 38.5521C1110.78 37.9689 1111.61 37.5367 1112.51 37.2812C1113.41 37.0256 1114.35 36.9519 1115.27 37.0643C1116.2 37.1767 1117.09 37.4729 1117.9 37.9356C1115.95 44.0399 1114.62 50.3211 1113.91 56.6875C1105.4 56.4133 1072.02 56.0569 1064.14 57.3728C1064.49 48.5452 1061.72 47.805 1060.73 43.446C1057.6 29.5191 1051.56 28.3677 1042.33 24.0361C1035.68 20.9382 1029.88 15.3182 1022.02 15.8116C1014.17 16.3051 1006.26 19.1288 1001.34 25.0505C996.422 30.9721 997.411 34.399 993.483 40.6771C990.507 45.1479 988.903 50.3882 988.867 55.7553C969.638 56.9342 902.581 55.207 885.275 55.0974C885.202 55.0974 885.132 55.1263 885.08 55.1777C885.029 55.2291 885 55.2988 885 55.3715C885 55.4442 885.029 55.514 885.08 55.5654C885.132 55.6168 885.202 55.6457 885.275 55.6457C902.581 55.865 971.698 57.4002 988.895 56.8794C989.334 66.831 995.625 70.4224 999.883 74.754C1002.26 77.6664 1005.38 79.883 1008.92 81.1691C1012.74 82.2931 1020.98 81.5529 1022.85 80.2096C1023.37 86.8714 1024.22 93.5059 1025.32 100.031C1025.32 100.661 1026.53 100.524 1026.45 100.031C1025.76 93.4784 1025.1 86.9537 1024.61 80.4289C1024.77 80.4289 1027.66 81.827 1028.95 82.3205C1032.78 83.5212 1036.84 83.7918 1040.8 83.1099C1044.75 82.428 1048.49 80.8134 1051.69 78.4002C1057.85 73.2461 1063.51 66.4472 1064.25 58.2227C1068.62 57.647 1105.87 58.2227 1113.91 57.976C1113.47 63.0466 1113.7 68.1538 1114.6 73.1639C1116.44 82.8688 1120.89 88.2148 1133.53 91.5046C1132.79 96.5215 1133.94 102.745 1127.65 104.719C1108.67 107.899 1092.41 116.507 1077.16 127.939C1074.69 129.776 1072.9 130.05 1073.56 133.066C1071.5 133.995 1069.5 135.057 1067.57 136.246C1068.15 133.696 1072.68 102.306 1074.08 89.1743C1074.25 89.0711 1074.41 88.9517 1074.55 88.8179C1075.46 89.75 1076.86 89.092 1077.46 88.0503C1078.67 87.4011 1079.69 86.4363 1080.39 85.2584C1081.1 84.0805 1081.47 82.7336 1081.47 81.361C1083.72 78.2357 1084.96 78.3453 1084.49 77.1117C1084.03 75.878 1081.58 75.5216 1080.43 76.2618C1077.96 72.5333 1071.44 72.5333 1067.79 74.2605C1060.9 77.5229 1061.91 85.2265 1059.17 91.1482C1052 106.994 1034.14 122.593 1027.33 148.72C1024.58 159.466 1026.23 170.652 1036.12 177.149C1049.17 185.675 1067.76 179.26 1079.63 171.282C1079.88 171.831 1080.21 173.064 1081.39 172.955C1085.44 172.465 1089.32 171.048 1092.73 168.815C1091.66 177.78 1091.06 203.906 1090.92 212.953C1090.92 220.492 1090.54 232.144 1091.8 233.158C1092.89 233.897 1094.11 234.418 1095.4 234.693C1094.58 242.918 1098.15 271.923 1098.15 273.623C1108.61 262.876 1109.93 261.779 1116.74 255.035C1116.79 254.995 1116.85 254.974 1116.91 254.977C1116.96 254.979 1117.02 255.005 1117.06 255.049C1117.1 255.093 1117.12 255.15 1117.12 255.209C1117.12 255.269 1117.09 255.324 1117.05 255.364C1112.6 260.189 1088.72 285.713 1087.87 288.262C1087.02 290.812 1092.02 295.5 1092.19 295.637C1073.86 317.569 1073.29 323.463 1068.59 351.756C1056.42 358.39 1038.95 362.722 1038.37 360.364C1037.82 358.308 1039.96 355.731 1041.39 354.634C1041.78 354.36 1041.72 353.647 1041.14 353.675C1037.1 353.964 1033.31 355.731 1030.49 358.637C1030.5 356.831 1030.9 355.049 1031.66 353.412C1032.42 351.775 1033.53 350.322 1034.91 349.151C1035.4 348.74 1034.91 348.109 1034.3 348.329C1028.81 350.821 1024.18 354.874 1020.98 359.98C1019.83 357.06 1019.74 353.829 1020.73 350.851C1020.9 350.303 1020.24 350.165 1019.85 350.467C1016.04 353.62 1015.6 360.364 1015.4 360.501C1014.66 361.022 1004.28 354.305 996.175 355.977C995.68 355.977 995.488 356.8 996.175 356.91C1000.97 357.897 1005.21 360.647 1008.07 364.613C1001 369.066 993.345 372.517 985.324 374.866C956.479 383.968 919.943 386.107 890.302 384.845C890.222 384.845 890.145 384.877 890.088 384.934C890.032 384.99 890 385.067 890 385.147C890 385.227 890.032 385.304 890.088 385.36C890.145 385.417 890.222 385.449 890.302 385.449C913.693 386.682 937.148 385.506 960.298 381.939C975.654 379.335 996.01 374.181 1008.84 365.189C1008.91 365.139 1008.97 365.071 1009.01 364.992C1009.06 364.913 1009.08 364.826 1009.08 364.737C1009.08 364.647 1009.06 364.56 1009.01 364.481C1008.97 364.402 1008.91 364.335 1008.84 364.284C1006.71 360.978 1003.6 358.419 999.938 356.964C1005.44 357.425 1010.75 359.162 1015.46 362.036C1015.52 362.067 1015.59 362.083 1015.66 362.085C1015.74 362.086 1015.81 362.071 1015.87 362.043C1015.94 362.014 1016 361.972 1016.04 361.919C1016.09 361.865 1016.13 361.803 1016.15 361.735C1016.61 358.72 1017.63 355.818 1019.17 353.181C1018.81 355.933 1019.25 358.729 1020.43 361.241C1020.48 361.315 1020.54 361.375 1020.62 361.417C1020.7 361.459 1020.78 361.481 1020.87 361.481C1020.96 361.481 1021.04 361.459 1021.12 361.417C1021.2 361.375 1021.26 361.315 1021.31 361.241C1023.88 356.776 1027.57 353.061 1032.02 350.467C1030.04 353.119 1029.12 356.413 1029.44 359.706C1029.44 359.808 1029.47 359.908 1029.53 359.993C1029.58 360.079 1029.66 360.146 1029.75 360.187C1029.85 360.228 1029.95 360.24 1030.05 360.223C1030.15 360.206 1030.25 360.159 1030.32 360.09C1032.64 357.222 1035.92 355.277 1039.55 354.607C1038.64 355.58 1037.98 356.759 1037.62 358.044C1037.27 359.328 1037.23 360.68 1037.52 361.981C1037.56 362.111 1037.64 362.221 1037.76 362.287C1037.88 362.354 1038.02 362.372 1038.15 362.338C1048.42 360.83 1059.5 358.308 1068.37 352.605C1065.07 372.372 1059.22 414.536 1058.56 436.66C1057.81 436.959 1057.14 437.418 1056.59 438.005C1056.04 438.593 1055.62 439.294 1055.37 440.059C1054.61 441.732 1052.63 447.434 1035.4 447.324C1034.11 447.324 1032.05 446.749 1030.54 447.818C1027.24 450.203 1028.48 455.165 1031.01 457.578C1034.74 461.114 1041.06 463.061 1045.84 464.843C1051.34 466.762 1058.62 469.585 1064.49 468.379C1071.53 466.981 1073.37 456.426 1073.07 449.189C1079.8 431.78 1091.5 416.839 1099.36 399.842C1106.42 384.626 1113.72 371.028 1118.23 355.977C1119.16 352.852 1119.22 349.974 1122.05 347.972C1123.69 346.821 1138.28 337.993 1143.09 333.716C1144.93 335.168 1146.93 336.409 1149.05 337.417C1151.8 337.938 1160.04 328.371 1161.99 326.451C1169.34 331.982 1177.76 335.939 1186.71 338.075C1192.73 339.633 1198.83 340.878 1204.98 341.804C1227.48 345.395 1264.4 349.754 1269.04 350.028C1269.58 350.651 1270.26 351.137 1271.03 351.447C1271.79 351.756 1272.62 351.881 1273.44 351.81C1275.31 351.81 1285.99 349.946 1288.46 366.834C1289.37 372.481 1296.18 374.784 1299.45 367.026C1301.4 362.338 1300.5 355.457 1300.06 350.577C1299.54 344.682 1299.01 337.143 1295.69 332.099C1292.78 327.685 1286.02 326.863 1279.92 329.632C1277.84 330.422 1275.82 331.338 1273.85 332.373C1249.68 323.628 1227.15 310.797 1204.43 299.036C1200.78 297.145 1197.23 295.006 1193.64 292.978C1195.03 291.15 1196.35 289.231 1197.59 287.221C1208.22 280.997 1218.25 272.307 1223.44 261.697C1224.84 259.213 1225.68 256.459 1225.92 253.621C1226.15 250.784 1225.78 247.928 1224.81 245.248C1222.07 238.477 1215.2 234.447 1208.88 231.541C1208.78 208.121 1206.13 184.781 1200.97 161.934C1206.66 164.675 1208.8 165.909 1211 165.882C1212.65 165.882 1212.86 165.196 1213.74 163.743C1214.62 162.29 1215.34 161.002 1216.13 159.658C1221.3 164.291 1229.46 165.361 1235.97 167.033C1232.1 178.549 1230.58 190.725 1231.52 202.837C1232.12 216.382 1233.63 229.873 1236.02 243.219C1234.04 245.138 1229.9 243.219 1228.8 244.7C1227.29 246.729 1232.26 248.373 1233.85 248.839C1232.79 251.154 1232.43 253.725 1232.81 256.242C1234.21 259.531 1239.21 261.149 1242.51 260.765C1245.8 260.381 1246.21 257.475 1247.04 254.98C1248.2 251.617 1248.71 248.061 1248.52 244.508C1253.49 221.287 1267.75 200.644 1269.81 176.683C1270.91 166.879 1269 156.973 1264.32 148.281C1260.99 142.442 1255.53 138.658 1250.17 134.848C1243.5 130.096 1236.66 125.627 1229.65 121.442C1230.14 119.249 1230.42 118.947 1229.95 118.7C1228.85 118.097 1227.7 117.549 1226.57 117.001C1258.05 102.772 1292.5 101.813 1325.94 94.8766C1324.48 105.843 1323.38 121.908 1325.72 129.557C1282.67 154.916 1284.84 201.494 1313.79 216.325C1330.74 224.961 1349.51 223.371 1367.42 237.819C1380.27 248.264 1387.33 263.698 1389.8 279.818C1395.3 315.458 1380.25 358.856 1360.19 389.067C1340.14 419.279 1310.99 443.898 1280.25 463.609C1226.88 497.576 1197.62 501.25 1198.22 502.429C1198.24 502.49 1198.28 502.541 1198.34 502.572C1198.4 502.603 1198.46 502.61 1198.53 502.593C1223.25 496.342 1246.85 484.39 1268.74 471.696C1299.43 453.877 1328.35 431.478 1350.69 403.789C1373.73 375.141 1390 338.295 1391.89 301.12C1393.73 265.48 1380.19 235.954 1346.07 225.153C1328.52 219.67 1304.07 218.08 1295.99 194.256C1289.1 173.832 1297.53 147.349 1325.91 130.461C1330.99 151.653 1349.89 165.717 1366.34 165.909C1366.34 176.107 1367.2 186.306 1367.58 196.477C1367.58 196.888 1368.3 196.888 1368.24 196.477C1367.94 186.306 1368.24 176.08 1367.42 165.909C1371.66 165.757 1375.83 164.74 1379.67 162.92C1383.5 161.101 1386.92 158.516 1389.72 155.327ZM1060.68 66.3101C1059.17 70.3401 1054.39 74.9185 1051.09 77.797C1048.06 80.0899 1044.53 81.6456 1040.79 82.3404C1037.06 83.0352 1033.21 82.8501 1029.55 81.7996C1027.88 81.1965 1024.44 79.4145 1024.44 79.4145C1024.44 79.4145 1024.19 76.2344 1024.11 74.6443C1030.02 69.2108 1035.01 62.8601 1038.89 55.8376C1038.89 55.6183 1038.67 55.4264 1038.53 55.6183C1034.55 62.1185 1029.64 68.002 1023.95 73.0816C1023.48 65.378 1023.18 57.6744 1023.12 49.9433C1027.9 46.333 1031.51 41.392 1033.48 35.7424C1033.62 35.4682 1033.12 35.2489 1032.99 35.5505C1030.42 40.3706 1027.06 44.7336 1023.07 48.4629C1023.07 44.3507 1023.07 40.2384 1023.26 36.1262C1023.26 36.0607 1023.23 35.998 1023.19 35.9517C1023.14 35.9054 1023.08 35.8794 1023.01 35.8794C1022.95 35.8794 1022.89 35.9054 1022.84 35.9517C1022.79 35.998 1022.77 36.0607 1022.77 36.1262C1022.24 42.651 1021.91 49.2306 1021.83 55.8376C1018.57 54.9661 1015.43 53.6565 1012.52 51.9446C1012.22 51.7253 1011.97 52.1914 1012.25 52.4107C1015.08 54.6536 1018.37 56.2617 1021.89 57.1261C1021.89 64.5282 1022.63 79.3323 1022.63 79.3323C1020.24 80.5731 1017.61 81.2595 1014.92 81.3402C1012.23 81.4209 1009.56 80.8938 1007.11 79.7983C1003.26 78.2083 1000.82 74.6169 997.85 71.848C994.765 69.4076 992.346 66.23 990.818 62.6091C989.729 59.1301 989.438 55.4514 989.965 51.8449C990.493 48.2385 991.827 44.7965 993.867 41.7737C995.569 38.943 996.96 35.9374 998.015 32.8089C1001.34 24.3377 1013.84 14.9892 1028.23 17.7033C1031.51 18.7809 1034.57 20.4233 1037.27 22.5557C1043.31 26.2019 1050.46 27.463 1055.15 33.1379C1057.9 36.3181 1058.4 40.0191 1059.82 43.8572C1061.65 47.2933 1062.68 51.098 1062.83 54.9863C1062.98 58.8746 1062.24 62.7458 1060.68 66.3101ZM1295.55 334.018C1298.85 340.735 1299.89 356.444 1299.21 363.763C1298.9 366.889 1296.07 373.057 1291.93 370.727C1292.84 369.287 1293.39 367.652 1293.55 365.957C1294.16 361.413 1294.45 356.833 1294.43 352.249C1294.66 347.212 1293.96 342.175 1292.37 337.39C1291.59 334.285 1290 331.445 1287.75 329.166C1289.4 329.037 1291.05 329.439 1292.45 330.312C1293.85 331.185 1294.94 332.484 1295.55 334.018ZM1284.56 337.637C1284.81 336.102 1286.35 334.457 1287.67 335.252C1288.41 335.8 1288.14 337.034 1287.67 337.801C1286.65 339.995 1284.21 339.501 1284.51 337.719L1284.56 337.637ZM1283.03 342.434C1284.18 341.639 1286.4 340.269 1287.89 340.652C1288.14 340.708 1288.37 340.841 1288.54 341.033C1288.71 341.225 1288.82 341.466 1288.85 341.722C1288.85 342.27 1288.49 342.572 1288.08 342.846C1287.16 343.477 1286.17 344.01 1285.14 344.436C1284.6 344.744 1283.96 344.841 1283.36 344.71C1283.14 344.632 1282.96 344.499 1282.81 344.326C1282.67 344.153 1282.57 343.945 1282.53 343.724C1282.49 343.502 1282.51 343.273 1282.59 343.062C1282.67 342.85 1282.8 342.662 1282.97 342.517L1283.03 342.434ZM1283.63 346.437C1285.31 345.642 1288.66 343.696 1290.03 345.258C1291.4 346.821 1289.15 347.808 1288.11 348.384C1287.06 348.959 1284.56 350.494 1282.94 349.645C1281.71 349.069 1281.49 347.534 1283.58 346.519L1283.63 346.437ZM1217.15 45.1183C1218.91 42.3768 1219.32 39.1692 1220.97 36.4003C1223.52 32.1331 1227.34 28.7642 1231.9 26.7601C1236.46 24.756 1241.53 24.2161 1246.41 25.215C1249.48 26.485 1252.41 28.0748 1255.14 29.9578C1260.17 32.8638 1265.75 33.7959 1269.67 38.4839C1271.82 41.3494 1273.24 44.6872 1273.82 48.2162C1274.56 51.3963 1276.43 53.6992 1276.57 57.2083C1277.03 61.5015 1276.01 65.823 1273.69 69.4629C1271.66 72.4331 1269.12 75.0224 1266.19 77.1117C1263.44 78.8936 1253.22 82.9511 1246.82 80.4563C1245.67 80.0176 1243 78.5921 1243 78.5921C1243 78.5921 1242.81 75.8506 1242.73 74.5346C1247.85 69.8283 1252.18 64.3299 1255.55 58.2501C1255.57 58.2249 1255.58 58.1971 1255.58 58.1683C1255.59 58.1395 1255.58 58.1103 1255.58 58.0823C1255.57 58.0543 1255.56 58.0281 1255.54 58.0051C1255.52 57.9822 1255.5 57.9629 1255.47 57.9485C1255.45 57.9341 1255.42 57.9248 1255.39 57.9212C1255.36 57.9175 1255.33 57.9196 1255.3 57.9272C1255.28 57.9348 1255.25 57.9479 1255.23 57.9657C1255.2 57.9835 1255.18 58.0056 1255.17 58.0308C1251.73 63.6004 1247.51 68.6503 1242.64 73.0268C1242.24 66.4289 1241.99 59.8036 1241.9 53.1509C1246.12 50.001 1249.29 45.6535 1250.99 40.6771C1250.99 40.4029 1250.64 40.1836 1250.5 40.4852C1248.26 44.5568 1245.39 48.2562 1242.01 51.4512V40.9512C1242.01 40.6222 1241.52 40.6497 1241.49 40.9512C1241.05 46.5622 1240.78 52.2279 1240.67 57.9485C1237.86 57.2268 1235.17 56.1196 1232.67 54.6587C1232.37 54.4668 1232.12 54.9329 1232.4 55.1248C1234.81 57.0893 1237.62 58.5023 1240.64 59.2645C1240.64 65.6522 1241.27 78.455 1241.27 78.455C1234.79 80.9772 1229.92 80.2644 1226.35 78.0438C1223.57 75.9467 1221.01 73.5672 1218.72 70.9433C1215.59 67.4355 1213.74 62.9835 1213.46 58.3009C1213.18 53.6183 1214.48 48.9761 1217.15 45.1183ZM1118.56 38.1001C1134.57 29.6014 1167.07 33.0283 1175.86 47.8598C1174.85 51.5334 1172.73 60.4433 1172.7 60.882C1166.11 52.9864 1156.88 46.2697 1146.44 45.0635C1136.47 43.9395 1124.02 43.8298 1115.67 50.1901C1116.41 46.1107 1117.38 42.0747 1118.56 38.1001ZM1127.92 105.267C1134.3 103.32 1133.2 96.6312 1134.08 91.3675C1134.08 90.3257 1126.06 89.3388 1120.97 84.6234C1113.45 77.6325 1113.72 60.9094 1115.48 51.04C1123.86 44.5152 1136.91 44.4603 1146.99 45.8311C1149.92 46.2333 1152.77 47.0647 1155.45 48.2985C1154.68 51.9172 1154.76 58.1953 1155.89 59.7579C1156.68 59.0631 1157.62 58.5642 1158.63 58.3022C1159.65 58.0401 1160.72 58.0222 1161.74 58.2501C1162.42 58.4346 1163.05 58.7803 1163.56 59.2576C1164.08 59.735 1164.47 60.3299 1164.71 60.9916C1166.44 65.4328 1162.59 68.1469 1161.96 69.0242C1161.5 69.858 1161.34 70.8287 1161.52 71.7657C1161.79 74.6682 1161.36 77.5932 1160.26 80.2938C1159.16 82.9944 1157.43 85.3914 1155.2 87.2826C1154.47 87.5523 1153.71 87.7812 1152.95 87.968C1152.57 87.968 1152.95 95.8635 1161.93 103.43C1165.27 103.348 1168.61 103.457 1171.93 103.759C1169.92 109.505 1165.94 114.358 1160.7 117.467C1144.9 127.967 1132.43 125.691 1127.1 122.95C1124.3 121.379 1122.22 118.798 1121.27 115.737C1120.33 112.676 1120.59 109.37 1122.02 106.501C1123.86 106.035 1127.76 105.294 1127.9 105.267H1127.92ZM1083.31 77.8519C1083.31 78.0438 1081.75 79.4145 1081.42 80.0176C1081.38 79.0806 1081.19 78.1553 1080.87 77.2761C1081.97 76.4537 1083.61 77.002 1083.28 77.7696L1083.31 77.8519ZM1044.85 179.945C1039.45 178.974 1034.61 176.022 1031.28 171.669C1027.95 167.317 1026.37 161.878 1026.86 156.423C1028.59 145.171 1032.56 134.378 1038.53 124.677C1046.78 111.627 1057.3 99.1808 1060.92 89.0372C1062.08 85.5281 1061.97 81.6626 1064.17 78.5372C1065.4 76.8619 1067.1 75.5894 1069.05 74.8816C1071.01 74.1738 1073.13 74.0625 1075.15 74.5621C1076.51 74.7192 1077.77 75.3593 1078.7 76.3658C1079.63 77.3723 1080.16 78.6781 1080.21 80.0451C1080.32 81.3121 1080.15 82.5891 1079.71 83.7807C1079.26 84.9722 1078.55 86.0475 1077.63 86.9262C1077.78 84.9822 1077.41 83.0327 1076.55 81.2787C1076.55 81.032 1075.95 81.2787 1076.06 81.4981C1076.77 83.4842 1076.92 85.6274 1076.5 87.6939C1076.14 88.4889 1075.29 88.297 1074.82 88.1599C1075.41 85.8737 1075.33 83.4686 1074.6 81.2239C1074.58 81.1626 1074.55 81.1089 1074.49 81.0708C1074.44 81.0328 1074.38 81.0122 1074.32 81.0122C1074.25 81.0122 1074.19 81.0328 1074.14 81.0708C1074.08 81.1089 1074.05 81.1626 1074.03 81.2239C1074.03 82.7866 1075.4 89.1194 1072.57 87.7487C1072.4 85.5317 1072.11 83.326 1071.69 81.1417C1071.69 80.7853 1071.14 80.9498 1071.17 81.2787C1071.44 83.2696 1071.58 85.2744 1071.61 87.2826C1071.61 88.4341 1069.96 88.0228 1069.44 87.2826C1068.54 85.4652 1068.21 83.4233 1068.48 81.4158C1068.47 81.334 1068.43 81.2571 1068.38 81.1952C1068.32 81.1332 1068.25 81.089 1068.17 81.0684C1068.09 81.0477 1068.01 81.0514 1067.93 81.0792C1067.85 81.1069 1067.78 81.1573 1067.74 81.2239C1066.34 83.9654 1068.42 90.0241 1071.14 89.6403C1071.42 89.4083 1071.77 89.2811 1072.13 89.2811C1072.49 89.2811 1072.84 89.4083 1073.12 89.6403C1067.05 128.871 1068.75 146.993 1054.88 156.698C1054.69 156.698 1054.88 157.191 1055.07 157.027C1061.46 152.214 1065.8 145.176 1067.21 137.315C1069.26 136.059 1071.38 134.923 1073.56 133.916C1074.6 138.768 1076.53 164.045 1079.27 170.761C1069.91 176.93 1056.2 182.084 1044.88 179.836L1044.85 179.945ZM1057.79 452.204C1057.93 452.05 1058.11 451.935 1058.31 451.87C1058.51 451.806 1058.72 451.793 1058.93 451.835C1059.13 451.876 1059.32 451.97 1059.48 452.107C1059.64 452.244 1059.76 452.419 1059.82 452.615C1059.82 452.615 1060.57 456.837 1059.52 458.098C1059.36 458.3 1059.14 458.447 1058.89 458.521C1058.64 458.594 1058.37 458.59 1058.12 458.51C1057.6 458.153 1056.75 453.191 1057.82 452.122L1057.79 452.204ZM1053.31 449.901C1054.52 448.777 1056.69 457.002 1054.69 457.961C1052.68 458.921 1052.52 456.454 1052.44 455.22C1052.35 453.548 1052 451.108 1053.34 449.819L1053.31 449.901ZM1062.35 467.831C1057.66 467.635 1053.02 466.711 1048.62 465.089C1043.3 463.388 1038.2 461.099 1033.4 458.263C1030.51 456.646 1027.27 451.574 1030.65 448.997C1031.58 450.412 1032.82 451.594 1034.28 452.451C1050.98 461.854 1064.49 463.856 1066.69 463.554C1067.84 463.372 1068.98 463.078 1070.07 462.677C1069.5 464.228 1068.44 465.556 1067.06 466.468C1065.67 467.38 1064.04 467.828 1062.38 467.749L1062.35 467.831ZM1061.58 457.249C1061.62 457.035 1061.7 456.832 1061.83 456.656C1061.95 456.48 1062.12 456.337 1062.31 456.238C1062.51 456.139 1062.72 456.087 1062.94 456.086C1063.15 456.086 1063.37 456.136 1063.56 456.234C1063.98 456.492 1064.34 456.84 1064.61 457.252C1064.88 457.664 1065.06 458.131 1065.13 458.619C1065.2 458.866 1065.2 459.129 1065.12 459.374C1065.04 459.618 1064.88 459.831 1064.67 459.982C1064.46 460.133 1064.21 460.215 1063.95 460.217C1063.69 460.218 1063.44 460.139 1063.23 459.99C1063.23 459.99 1061.45 458.208 1061.61 457.166L1061.58 457.249ZM1072.35 448.339C1070.68 449.131 1068.81 449.395 1066.98 449.096C1065.15 448.797 1063.46 447.95 1062.13 446.666C1060.97 445.05 1060.24 443.162 1060.02 441.183C1064.17 443.638 1068.93 444.873 1073.75 444.747C1073.34 445.817 1072.85 447.023 1072.38 448.256L1072.35 448.339ZM1119.44 349.096C1118.48 351.098 1109.46 377.882 1099.77 396.415C1095.07 405.379 1090.87 414.317 1085.59 422.925C1081.31 429.638 1077.49 436.636 1074.16 443.87C1069.17 443.867 1064.26 442.583 1059.91 440.142C1059.63 438.442 1059.52 437.044 1059.44 436.824C1060.68 424.652 1061.36 412.425 1062.74 400.253C1064.33 385.97 1070.79 337.801 1074.88 324.916C1078.29 313.95 1085.4 304.629 1092.6 295.884C1103.81 304.739 1141.44 332.839 1142.32 333.36C1137.35 337.555 1120.89 346.026 1119.44 349.096ZM1273.82 333.36C1275.18 334.549 1276.15 336.116 1276.61 337.86C1277.07 339.603 1277 341.445 1276.41 343.147C1275.55 345.615 1270.36 348.63 1268.99 349.508L1268.03 349.37C1271.93 344.463 1271.9 338.651 1271.57 332.62C1272.39 332.894 1273.08 333.113 1273.82 333.36ZM1213.25 304.986C1227.64 312.662 1255.44 326.918 1270.8 332.401C1271.05 338.459 1271.13 344.299 1267.2 349.316C1222.95 343.038 1183.8 342.243 1162.51 326.177C1169.24 319.79 1189.98 299.448 1193.25 293.581C1199.9 297.309 1206.46 301.367 1213.25 304.986ZM1208.77 232.363C1215.17 235.543 1222.04 239.765 1224.43 246.866C1226.46 252.897 1224.16 259.339 1220.97 264.493C1215.24 273.189 1207.56 280.428 1198.53 285.63C1202.38 279.11 1204.8 271.851 1205.64 264.33C1206.49 256.808 1205.73 249.194 1203.41 241.986C1205.06 241.328 1206.66 240.615 1208.25 239.793C1208.36 239.808 1208.48 239.78 1208.57 239.714C1208.66 239.647 1208.72 239.548 1208.74 239.436C1208.77 239.162 1208.8 233.432 1208.77 232.363ZM1245.69 132.655C1250.97 136.246 1257.2 139.974 1261.27 144.991C1267.83 153.216 1269.67 164.758 1269.07 174.874C1267.59 199.383 1252.2 220.383 1247.7 244.179C1247.97 246.638 1247.8 249.125 1247.2 251.526C1246.79 254.012 1245.95 256.406 1244.7 258.599C1242.34 261.697 1233.85 259.23 1233.17 255.446C1233.17 253.146 1233.6 250.867 1234.46 248.73C1234.47 248.668 1234.46 248.605 1234.43 248.55C1234.4 248.495 1234.35 248.452 1234.29 248.428C1232.65 248.145 1231.11 247.426 1229.84 246.345C1229.7 246.128 1229.63 245.876 1229.63 245.618C1229.63 245.361 1229.7 245.108 1229.84 244.892C1230.34 244.453 1234.9 245.824 1236.6 243.603C1236.63 243.563 1236.64 243.515 1236.64 243.466C1236.64 243.417 1236.63 243.37 1236.6 243.329C1234.32 217.806 1227.95 192.227 1236.6 167.143C1236.62 167.105 1236.63 167.064 1236.63 167.023C1236.63 166.981 1236.62 166.94 1236.61 166.901C1236.59 166.862 1236.57 166.827 1236.54 166.798C1236.51 166.769 1236.47 166.746 1236.43 166.731C1230.06 163.359 1222.04 164.154 1216.41 159.192C1217.18 157.794 1228.19 127.555 1229.37 122.209C1234.92 125.472 1240.34 129.008 1245.69 132.655ZM1212.15 164.291C1210.37 166.622 1204.21 162.263 1202.07 161.276C1199.93 160.289 1197.01 158.946 1194.46 157.904C1194.02 157.712 1193.69 158.452 1194.13 158.671C1196.11 159.686 1198.14 160.645 1200.17 161.605C1205.29 187.169 1207.88 213.174 1207.89 239.244C1196.4 244.179 1184 246.636 1171.49 246.454C1158.38 247.059 1145.24 245.906 1132.43 243.027C1120.65 240.012 1108.75 237.736 1097.05 234.364C1093.89 233.46 1091.8 232.994 1091.55 229.101C1091.31 225.208 1092.24 170.268 1095.81 153.654C1095.81 153.271 1095.29 153.106 1095.21 153.49C1094.16 158.315 1093.37 163.195 1092.76 168.102C1090.02 169.774 1084.16 173.585 1080.95 171.748C1077.74 169.912 1077.79 160.782 1077.52 158.37C1076.94 153.545 1074.11 131.805 1074.41 130.955C1082.01 124.572 1090.31 119.055 1099.14 114.506C1106.24 111.149 1113.67 108.53 1121.3 106.692C1117.05 116.507 1123.78 127.117 1140.53 126.212C1147.53 125.404 1154.23 122.88 1160.01 118.865C1165.94 115.219 1171 110.64 1172.43 103.677C1193.03 105.349 1203.25 109.955 1211.35 112.066C1217.35 114.008 1223.24 116.278 1228.99 118.865C1228.99 118.865 1218.33 156.177 1212.1 164.264L1212.15 164.291ZM1326.7 90.0241C1327.06 90.9837 1326.46 92.327 1326.13 93.5607C1292.34 99.6742 1257.07 101.785 1225.5 116.26C1206.46 107.597 1182.7 101.867 1162.32 102.553C1157.67 99.0977 1154.52 93.996 1153.53 88.297C1160.78 86.7069 1165.26 80.6482 1168.99 74.3702C1171.32 69.8303 1172.84 64.9243 1173.5 59.8676C1179.46 60.0047 1185.45 59.8676 1191.41 59.8676C1198.35 60.1555 1205.3 59.7144 1212.15 58.5517C1212.16 61.0084 1212.69 63.4358 1213.69 65.6796C1215.33 68.6083 1217.55 71.1805 1220.2 73.2461C1222.49 75.9725 1225.29 78.234 1228.44 79.908C1232.78 81.4196 1237.52 81.3125 1241.79 79.6064C1241.79 79.6064 1242.97 91.0933 1243.93 96.7134C1243.93 97.3439 1245.14 97.2069 1245.06 96.7134C1244.46 91.0659 1243.49 79.7983 1243.49 79.7983C1243.49 79.7983 1245.83 80.8401 1246.87 81.2513C1253.47 83.9928 1264.98 79.5516 1267.2 77.8793C1272.7 73.6848 1277.26 68.4485 1277.83 61.2383V57.6744C1277.83 57.6744 1320.19 57.6744 1328.41 58.0582C1324.59 62.6091 1321.18 75.1378 1326.7 90.0241ZM1385.49 85.4458C1380 95.0959 1374.5 104.911 1368.02 114.04C1368.19 130.023 1368.62 146.115 1367.77 162.043C1367.77 162.203 1367.71 162.357 1367.6 162.47C1367.48 162.583 1367.33 162.647 1367.17 162.647C1367.01 162.647 1366.85 162.583 1366.74 162.47C1366.63 162.357 1366.56 162.203 1366.56 162.043V145.841C1361.43 140.357 1355.51 135.671 1348.98 131.942C1348.52 131.695 1348.98 130.955 1349.42 131.202C1355.98 134.257 1361.82 138.656 1366.56 144.114C1366.56 123.553 1367.06 102.991 1367.36 82.485C1363.3 77.5003 1358.29 73.3562 1352.64 70.2853C1352.09 70.0386 1352.64 69.2435 1353.13 69.4903C1358.89 71.7819 1363.85 75.7091 1367.39 80.7853C1367.77 54.083 1367.39 54.8781 1367.97 54.9877C1368.1 54.9877 1368.19 54.9877 1368.21 55.2344C1368.82 73.1639 1368.02 91.0933 1368.21 109.023V111.764C1373.71 102.745 1379.67 94.109 1384.94 85.0072C1385.02 84.9837 1385.1 84.9815 1385.18 85.0007C1385.26 85.0199 1385.33 85.0598 1385.38 85.1162C1385.44 85.1726 1385.48 85.2433 1385.5 85.3207C1385.52 85.3981 1385.52 85.4793 1385.49 85.5555V85.4458Z" fill="black"/>
</svg>
