<svg width="1446" height="658" viewBox="0 0 1446 658" fill="none" xmlns="http://www.w3.org/2000/svg">
<path d="M0 0H762.453L991 658H0V0Z" fill="#FAFA38"/>
<path d="M252.504 243.088C251.352 243.152 250.392 242.608 249.624 241.456C248.856 240.304 248.504 239.344 248.568 238.576C248.632 237.552 248.92 236.08 249.432 234.16C249.944 232.24 250.52 230.288 251.16 228.304C251.8 226.32 252.376 224.752 252.888 223.6C253.144 222.576 253.368 221.68 253.56 220.912C253.816 220.08 253.976 219.536 254.04 219.28C254.232 219.024 254.52 218.352 254.904 217.264C255.352 216.176 255.704 215.12 255.96 214.096C256.088 213.584 256.344 212.624 256.728 211.216C257.176 209.744 257.688 208.048 258.264 206.128C258.904 204.208 259.512 202.32 260.088 200.464C260.728 198.608 261.272 196.976 261.72 195.568C262.168 194.16 262.456 193.232 262.584 192.784C263.096 192.016 263.48 191.28 263.736 190.576C263.992 189.872 264.152 189.392 264.216 189.136C264.6 188.88 264.824 188.56 264.888 188.176C264.952 187.728 264.984 187.376 264.984 187.12C264.984 186.8 265.08 186.544 265.272 186.352C265.528 186.16 265.656 185.936 265.656 185.68C265.912 185.488 266.072 185.456 266.136 185.584C266.2 185.712 266.392 185.616 266.712 185.296L267.192 182.032L275.736 181.936C275.608 182.704 275.416 183.664 275.16 184.816C274.904 185.904 274.296 187.376 273.336 189.232C273.016 190.512 272.632 191.664 272.184 192.688C271.8 193.712 271.64 194.384 271.704 194.704C271.576 194.832 271.288 195.472 270.84 196.624C270.456 197.776 269.976 199.184 269.4 200.848C268.888 202.512 268.344 204.176 267.768 205.84C267.256 207.504 266.776 208.976 266.328 210.256C265.944 211.472 265.688 212.24 265.56 212.56C265.048 213.584 264.472 215.088 263.832 217.072C263.192 219.056 262.232 221.744 260.952 225.136C260.44 226.16 259.8 227.696 259.032 229.744C258.328 231.792 257.752 233.648 257.304 235.312C256.6 237.808 255.96 239.6 255.384 240.688C254.872 241.776 254.392 242.416 253.944 242.608C253.496 242.864 253.016 243.024 252.504 243.088ZM253.368 186.64C250.744 186.896 248.952 186.576 247.992 185.68C247.096 184.784 246.776 183.824 247.032 182.8C247.224 182.032 247.672 181.392 248.376 180.88C249.144 180.304 250.52 179.824 252.504 179.44C253.208 179.312 254.104 179.152 255.192 178.96C256.344 178.768 257.432 178.576 258.456 178.384C260.568 178.128 262.296 177.904 263.64 177.712C265.048 177.52 266.488 177.36 267.96 177.232C269.432 177.104 271.288 176.976 273.528 176.848C275.384 176.72 276.952 176.624 278.232 176.56C279.576 176.432 280.248 176.368 280.248 176.368C280.44 176.368 281.112 176.432 282.264 176.56C283.416 176.688 284.664 176.848 286.008 177.04C287.352 177.232 288.344 177.456 288.984 177.712C290.456 178.032 291.64 178.608 292.536 179.44C293.432 180.272 294.008 181.232 294.264 182.32C294.456 183.088 294.456 183.696 294.264 184.144C294.072 184.528 293.72 184.848 293.208 185.104C291.736 185.552 290.52 185.936 289.56 186.256C288.664 186.512 287.768 186.48 286.872 186.16C286.552 185.84 286.168 185.552 285.72 185.296C285.336 185.04 284.632 184.848 283.608 184.72C282.648 184.528 281.112 184.368 279 184.24C277.208 184.432 275.64 184.528 274.296 184.528C272.952 184.528 272.28 184.688 272.28 185.008L266.616 185.296L261.912 185.776C261.272 185.84 260.376 185.936 259.224 186.064C258.072 186.128 256.952 186.224 255.864 186.352C254.776 186.416 253.944 186.512 253.368 186.64ZM290.188 234.352C289.74 234.416 289.228 234.256 288.652 233.872C288.14 233.424 287.66 233.04 287.212 232.72C286.572 231.952 286.124 231.28 285.868 230.704C285.612 230.128 285.484 229.488 285.484 228.784C285.484 228.08 285.548 227.248 285.676 226.288C285.996 225.264 286.38 223.888 286.828 222.16C287.276 220.432 287.82 218.576 288.46 216.592C288.588 215.824 288.812 214.928 289.132 213.904C289.516 212.816 289.9 211.792 290.284 210.832C290.668 209.808 290.956 209.04 291.148 208.528C291.596 206.928 292.044 205.392 292.492 203.92C293.004 202.448 293.612 200.752 294.316 198.832C295.02 196.912 295.884 194.48 296.908 191.536C298.316 187.696 299.372 184.816 300.076 182.896C300.78 180.976 301.292 179.6 301.612 178.768C301.932 177.936 302.156 177.264 302.284 176.752C302.284 176.24 302.636 175.76 303.34 175.312C304.108 174.8 304.78 174.544 305.356 174.544C306.252 174.608 307.116 175.152 307.948 176.176C308.78 177.136 309.356 178.32 309.676 179.728C309.996 181.072 309.772 182.384 309.004 183.664C307.98 185.968 306.956 188.56 305.932 191.44C304.972 194.256 304.012 197.072 303.052 199.888C302.092 202.704 301.132 205.296 300.172 207.664C300.108 207.984 299.884 208.528 299.5 209.296C299.18 210.064 298.892 210.704 298.636 211.216C298.38 211.728 298.124 212.208 297.868 212.656C297.676 213.104 297.58 213.328 297.58 213.328C297.516 213.712 297.388 214.256 297.196 214.96C297.004 215.664 296.812 216.272 296.62 216.784C296.556 217.104 296.46 217.52 296.332 218.032C296.204 218.544 296.108 219.056 296.044 219.568C296.364 219.184 296.812 218.736 297.388 218.224C297.964 217.648 298.7 216.944 299.596 216.112C300.62 215.216 301.516 214.448 302.284 213.808C303.052 213.168 303.82 212.592 304.588 212.08C305.292 211.568 305.932 211.088 306.508 210.64C307.148 210.192 307.468 209.968 307.468 209.968C307.596 209.776 307.724 209.552 307.852 209.296C308.044 209.04 308.236 208.88 308.428 208.816C308.556 208.688 308.78 208.528 309.1 208.336C309.42 208.08 309.74 207.824 310.06 207.568C310.636 207.184 311.244 206.864 311.884 206.608C312.524 206.352 313.196 206.16 313.9 206.032C314.604 205.904 315.276 205.84 315.916 205.84C316.684 205.84 317.484 206.16 318.316 206.8C319.148 207.376 319.916 208.208 320.62 209.296C321.26 210.128 321.644 211.12 321.772 212.272C321.964 213.36 321.996 214.832 321.868 216.688C321.868 217.2 321.708 218.16 321.388 219.568C321.132 220.976 320.94 222.032 320.812 222.736L319.948 226H320.716C321.42 225.744 322.092 225.712 322.732 225.904C323.436 226.096 323.788 226.192 323.788 226.192C324.108 226.384 324.396 226.608 324.652 226.864C324.972 227.12 325.26 227.312 325.516 227.44C325.9 227.952 325.836 228.688 325.324 229.648C324.812 230.608 324.236 231.28 323.596 231.664C322.06 232.688 320.684 233.328 319.468 233.584C318.316 233.84 317.1 233.616 315.82 232.912C314.604 232.08 313.772 231.088 313.324 229.936C312.94 228.784 312.78 227.216 312.844 225.232C313.1 222.416 313.26 220.4 313.324 219.184C313.388 217.904 313.068 217.264 312.364 217.264C311.596 217.264 310.54 217.648 309.196 218.416C307.916 219.12 306.476 220.112 304.876 221.392C303.276 222.608 301.676 223.984 300.076 225.52C298.54 226.992 297.164 228.496 295.948 230.032C295.18 230.992 294.348 231.952 293.452 232.912C292.556 233.808 291.468 234.288 290.188 234.352ZM350.347 236.08C348.427 237.168 346.379 237.808 344.203 238C342.091 238.128 340.107 237.84 338.251 237.136C336.395 236.368 334.891 235.248 333.739 233.776C333.099 232.944 332.491 231.632 331.915 229.84C331.339 227.984 331.243 225.488 331.627 222.352C332.011 219.408 332.907 216.432 334.315 213.424C335.787 210.416 337.579 207.76 339.691 205.456C341.803 203.152 344.107 201.584 346.603 200.752C347.499 200.432 348.395 200.208 349.291 200.08C350.251 199.888 351.499 199.856 353.035 199.984C354.507 200.176 355.819 200.56 356.971 201.136C358.123 201.648 358.955 202.224 359.467 202.864C360.491 203.888 361.163 204.88 361.483 205.84C361.803 206.8 361.931 207.728 361.867 208.624C361.547 210.672 360.619 212.88 359.083 215.248C357.611 217.616 355.531 219.376 352.843 220.528C351.755 220.976 350.475 221.264 349.003 221.392C347.531 221.52 345.515 221.328 342.955 220.816C341.419 220.496 340.395 220.656 339.883 221.296C339.435 221.936 339.243 223.184 339.307 225.04C339.435 226.192 339.691 227.216 340.075 228.112C340.523 228.944 341.323 229.52 342.475 229.84C343.947 230.096 345.003 230.128 345.643 229.936C346.283 229.68 347.083 229.328 348.043 228.88C348.555 228.56 349.035 228.208 349.483 227.824C349.995 227.44 350.475 227.056 350.923 226.672C351.435 226.288 351.851 226 352.171 225.808C352.491 225.552 352.811 225.392 353.131 225.328C353.451 225.264 353.771 225.232 354.091 225.232C354.795 225.296 355.467 225.68 356.107 226.384C356.747 227.088 357.163 227.76 357.355 228.4C357.355 228.912 357.035 229.648 356.395 230.608C355.755 231.504 354.891 232.464 353.803 233.488C352.779 234.448 351.627 235.312 350.347 236.08ZM349.099 214.672C349.547 214.48 350.187 214.032 351.019 213.328C351.915 212.624 352.715 211.888 353.419 211.12C354.123 210.288 354.475 209.648 354.475 209.2C354.475 208.496 353.995 207.888 353.035 207.376C352.139 206.864 350.955 206.768 349.483 207.088C348.971 207.216 348.363 207.568 347.659 208.144C346.955 208.72 346.251 209.392 345.547 210.16C344.843 210.864 344.235 211.568 343.723 212.272C343.211 212.912 342.859 213.424 342.667 213.808C342.923 214.128 343.435 214.384 344.203 214.576C344.971 214.768 345.803 214.864 346.699 214.864C347.659 214.864 348.459 214.8 349.099 214.672Z" fill="black"/>
<path d="M252.9 354.75C251.1 354.25 249.65 353.8 248.55 353.4C247.45 353.1 246.9 352.95 246.9 352.95C247.1 352.45 247 352 246.6 351.6C246.3 351.2 245.6 350.95 244.5 350.85C243 349.85 241.45 348.45 239.85 346.65C238.25 344.85 236.85 343 235.65 341.1C234.45 339.2 233.65 337.8 233.25 336.9C232.55 335.4 232.6 334.5 233.4 334.2C234.2 333.8 235.15 333.35 236.25 332.85C237.35 332.05 238.5 331.45 239.7 331.05C241 330.65 242.05 331.3 242.85 333C244.15 335.3 246.15 337.25 248.85 338.85C251.65 340.45 254.8 341.4 258.3 341.7C261.9 342 265.5 341.4 269.1 339.9C271.5 338.8 272.8 337.3 273 335.4C273.2 333.4 272.45 331.1 270.75 328.5C270.45 327.7 270 327.05 269.4 326.55C268.9 326.05 268.1 325.4 267 324.6C266 323.8 264.55 322.5 262.65 320.7C261.15 320 259.75 319.35 258.45 318.75C257.25 318.15 255.95 317.5 254.55 316.8C252.95 316 251.15 314.9 249.15 313.5C247.15 312 245.3 310.4 243.6 308.7C241.9 306.9 240.6 305.2 239.7 303.6C238.1 302.1 237.1 300.05 236.7 297.45C236.3 294.75 236.35 291.9 236.85 288.9C237.45 285.9 238.4 283.2 239.7 280.8C240.3 279.4 241.4 277.6 243 275.4C244.6 273.1 246.4 270.75 248.4 268.35C250.4 265.95 252.3 263.8 254.1 261.9C256 259.9 257.5 258.55 258.6 257.85C259.4 257.05 260.25 256.25 261.15 255.45C262.05 254.55 262.5 254.1 262.5 254.1C262.6 253.6 262.75 253.35 262.95 253.35C263.25 253.35 263.4 253.35 263.4 253.35C263.9 253.05 265 252.55 266.7 251.85C268.4 251.15 270.25 249.85 272.25 247.95C278.95 244.75 284.65 242.6 289.35 241.5C294.05 240.3 297.75 239.7 300.45 239.7C302.95 239.8 305.4 240.5 307.8 241.8C310.2 243 312.25 244.55 313.95 246.45C315.75 248.35 316.8 250.5 317.1 252.9C317.8 255.3 317.45 258.2 316.05 261.6C314.75 264.9 312.9 268.05 310.5 271.05C308.2 273.95 305.8 276.1 303.3 277.5C300.5 278.7 298.1 278.85 296.1 277.95C294.2 277.05 293.3 275.65 293.4 273.75C293.4 272.95 293.65 272 294.15 270.9C294.75 269.8 296.3 267.85 298.8 265.05C302 260.35 303.7 257 303.9 255C304.1 253 303.2 251.85 301.2 251.55C300.6 251.35 299.45 251.4 297.75 251.7C296.05 252 294.2 252.4 292.2 252.9C290.3 253.3 288.6 253.75 287.1 254.25C285.7 254.75 285 255.1 285 255.3C285 255.3 285 255.45 285 255.75C285 256.05 284.8 256.15 284.4 256.05C284.2 256.05 283.5 256.4 282.3 257.1C281.2 257.7 279.85 258.5 278.25 259.5C276.65 260.5 275.05 261.55 273.45 262.65C271.95 263.65 270.65 264.55 269.55 265.35C268.45 266.15 267.85 266.65 267.75 266.85C267.55 267.95 266.4 268.95 264.3 269.85C262.3 271.05 260.55 272.75 259.05 274.95C257.55 277.15 255.8 279.95 253.8 283.35C252.1 285.65 250.9 288.15 250.2 290.85C249.5 293.45 249.5 295.55 250.2 297.15C250.7 298.75 252.05 300.35 254.25 301.95C256.55 303.45 259.65 305.35 263.55 307.65C266.95 309.55 270.15 311.55 273.15 313.65C276.15 315.75 278.7 317.8 280.8 319.8C282.9 321.7 284.25 323.3 284.85 324.6C286.05 326.3 286.75 328.25 286.95 330.45C287.25 332.65 287.25 334.8 286.95 336.9C286.75 338.9 286.45 340.55 286.05 341.85C285.35 343.45 284.25 345.15 282.75 346.95C281.35 348.75 280.05 349.6 278.85 349.5C277.75 349.8 276.9 350.15 276.3 350.55C275.8 350.95 275.2 351.3 274.5 351.6C273.8 352 272.15 352.45 269.55 352.95C266.95 353.55 264.1 354 261 354.3C257.9 354.7 255.2 354.85 252.9 354.75ZM311.003 343.95C309.703 343.95 308.653 343.7 307.853 343.2C307.153 342.7 306.253 342 305.153 341.1C303.253 339.1 301.703 336.95 300.503 334.65C299.403 332.35 299.003 330.35 299.303 328.65C299.603 327.85 299.703 327.1 299.603 326.4C299.603 325.6 299.603 325.2 299.603 325.2C299.103 324.7 298.953 324.4 299.153 324.3C299.353 324.1 299.553 323.8 299.753 323.4C300.353 323.4 300.553 322.85 300.353 321.75C300.153 320.95 300.453 319.25 301.253 316.65C302.153 313.95 303.353 311.4 304.853 309C305.453 308 306.353 306.7 307.553 305.1C308.753 303.4 310.053 301.75 311.453 300.15C312.953 298.45 314.303 297.1 315.503 296.1C318.003 294 320.303 292.3 322.403 291C324.603 289.7 326.803 288.8 329.003 288.3C331.203 287.8 333.453 287.55 335.753 287.55C338.153 287.55 340.103 288.35 341.603 289.95C343.903 290.95 345.503 292.3 346.403 294C347.403 295.7 348.053 297.9 348.353 300.6C348.653 303.6 348.353 307.3 347.453 311.7C346.553 316 344.103 321 340.103 326.7C337.603 330.3 335.153 333.1 332.753 335.1C330.353 337.1 327.703 338.95 324.803 340.65C322.703 342.05 320.453 342.9 318.053 343.2C315.653 343.5 313.303 343.75 311.003 343.95ZM326.303 325.65C328.503 323.75 330.053 321.65 330.953 319.35C331.953 317.05 333.003 314.35 334.103 311.25C334.503 310.65 334.753 309.65 334.853 308.25C335.053 306.85 335.103 305.5 335.003 304.2C334.903 302.8 334.553 302 333.953 301.8C333.053 301.1 332.153 300.95 331.253 301.35C330.353 301.65 329.203 302.3 327.803 303.3C324.803 305.8 322.003 308.7 319.403 312C316.903 315.2 315.153 319.15 314.153 323.85C313.853 326.35 314.103 328.25 314.903 329.55C315.803 330.75 317.203 331.1 319.103 330.6C321.103 330 323.503 328.35 326.303 325.65ZM361.448 346.65C359.548 347.15 357.848 346.6 356.348 345C354.848 343.5 353.798 341.25 353.198 338.25C352.598 335.25 352.698 331.9 353.498 328.2C353.998 327 354.398 325.85 354.698 324.75C354.998 323.55 355.148 322.6 355.148 321.9C355.348 320.9 355.748 319.45 356.348 317.55C356.948 315.55 357.598 313.5 358.298 311.4C358.998 309.3 359.648 307.45 360.248 305.85C360.948 304.15 361.398 303.1 361.598 302.7C361.998 302.7 362.348 302.35 362.648 301.65C362.948 300.95 363.098 300.25 363.098 299.55C363.098 298.75 363.248 297.85 363.548 296.85C363.948 295.85 364.348 295.15 364.748 294.75C364.748 294.25 364.848 293.7 365.048 293.1C365.348 292.4 365.498 291.85 365.498 291.45C365.498 291.05 365.598 290.65 365.798 290.25C366.098 289.85 366.248 289.45 366.248 289.05C366.948 287.75 367.848 285.7 368.948 282.9C370.148 280 371.398 276.8 372.698 273.3C374.098 269.8 375.398 266.35 376.598 262.95C377.798 259.55 378.748 256.7 379.448 254.4C380.248 252 380.648 250.55 380.648 250.05C380.648 249.25 380.948 248.5 381.548 247.8C382.148 247.1 382.848 246.75 383.648 246.75C383.948 246.45 384.648 246.25 385.748 246.15C386.848 245.95 387.598 245.85 387.998 245.85C387.998 245.85 388.198 246.05 388.598 246.45C388.998 246.85 389.598 247.45 390.398 248.25C391.198 248.95 391.948 249.75 392.648 250.65C393.448 251.55 393.848 252.6 393.848 253.8C393.848 255.1 393.648 256.35 393.248 257.55C392.948 258.75 392.348 260.4 391.448 262.5C390.548 264.5 389.148 267.5 387.248 271.5C386.448 273.5 385.598 275.4 384.698 277.2C383.798 278.9 383.348 279.95 383.348 280.35C383.348 280.75 383.148 281.35 382.748 282.15C382.448 282.95 382.098 283.95 381.698 285.15C381.298 285.95 380.748 287.15 380.048 288.75C379.348 290.25 378.598 291.9 377.798 293.7C377.098 295.4 376.498 296.9 375.998 298.2C375.498 299.4 375.248 300.1 375.248 300.3C375.248 300.7 375.198 301.1 375.098 301.5C375.098 301.9 374.898 302.3 374.498 302.7C374.098 302.7 373.848 303 373.748 303.6C373.748 304.1 373.748 304.35 373.748 304.35C373.748 305.35 372.948 308 371.348 312.3C369.748 317.8 368.248 322.85 366.848 327.45C365.548 332.05 364.898 335.75 364.898 338.55C364.898 340.95 364.498 342.8 363.698 344.1C362.998 345.4 362.248 346.25 361.448 346.65ZM418.259 345.9C417.559 346.3 416.609 346.15 415.409 345.45C414.309 344.75 413.209 343.7 412.109 342.3C411.409 341.1 410.859 339.9 410.459 338.7C410.159 337.4 410.009 335.5 410.009 333C410.109 331 410.109 329.65 410.009 328.95C410.009 328.15 409.559 328.1 408.659 328.8C407.859 329.4 406.209 330.9 403.709 333.3C401.209 335.8 398.809 337.95 396.509 339.75C394.309 341.45 392.509 342.25 391.109 342.15C390.409 342.15 389.459 341.7 388.259 340.8C387.059 339.9 385.909 338.8 384.809 337.5C383.709 336.1 382.909 334.8 382.409 333.6C381.809 331.2 381.759 328.1 382.259 324.3C382.859 320.5 383.809 316.55 385.109 312.45C386.409 308.25 387.859 304.35 389.459 300.75C391.159 297.05 392.809 294.1 394.409 291.9C396.109 289.6 397.559 288.5 398.759 288.6C400.459 288.8 401.909 289.65 403.109 291.15C404.409 292.55 405.409 294.1 406.109 295.8C406.509 296.5 406.659 297.1 406.559 297.6C406.559 298.1 406.159 298.7 405.359 299.4C404.459 300.6 403.359 302.35 402.059 304.65C400.859 306.85 399.609 309.25 398.309 311.85C397.109 314.45 396.009 316.95 395.009 319.35C394.109 321.65 393.459 323.55 393.059 325.05C392.659 326.55 392.659 327.3 393.059 327.3C394.459 327.3 395.759 326.95 396.959 326.25C398.159 325.45 399.659 324.2 401.459 322.5C403.559 320.4 405.409 318.3 407.009 316.2C408.609 314 410.259 311.5 411.959 308.7C413.259 306.7 414.609 304.5 416.009 302.1C417.509 299.7 418.459 298 418.859 297C420.259 294.4 421.309 292.45 422.009 291.15C422.709 289.85 423.559 289.05 424.559 288.75C425.059 288.75 425.759 288.75 426.659 288.75C427.559 288.75 428.009 288.75 428.009 288.75C428.609 288.85 429.309 289.3 430.109 290.1C430.909 290.5 431.709 291.05 432.509 291.75C433.409 292.45 433.859 293.05 433.859 293.55C433.459 294.55 432.809 296.05 431.909 298.05C431.109 299.95 430.509 301.35 430.109 302.25C428.209 306.55 426.359 310.8 424.559 315C422.859 319.1 421.609 323.3 420.809 327.6C420.609 329 420.559 330.65 420.659 332.55C420.859 334.35 421.159 335.65 421.559 336.45C421.859 337.05 422.209 337.75 422.609 338.55C423.109 339.25 423.659 339.85 424.259 340.35C425.159 340.95 425.109 341.7 424.109 342.6C423.209 343.5 422.059 344.3 420.659 345C419.359 345.6 418.559 345.9 418.259 345.9ZM456.826 345.9C455.426 345.5 454.026 344.8 452.626 343.8C451.226 342.8 449.776 341.65 448.276 340.35C447.076 338.75 446.226 337.3 445.726 336C445.226 334.6 444.926 333 444.826 331.2C444.826 329.3 444.826 326.9 444.826 324C444.826 322.8 445.026 321.1 445.426 318.9C445.926 316.7 446.426 314.4 446.926 312C447.526 309.6 448.076 307.5 448.576 305.7C449.076 303.8 449.376 302.55 449.476 301.95C449.776 300.65 449.276 299.9 447.976 299.7C446.676 299.5 445.226 299.45 443.626 299.55C442.126 299.55 441.126 299.4 440.626 299.1C440.226 299 440.026 298.5 440.026 297.6C440.026 296.6 440.026 296.1 440.026 296.1C440.026 295.7 439.826 295.45 439.426 295.35C439.026 295.15 438.676 294.8 438.376 294.3C438.176 293.9 438.426 293.15 439.126 292.05C439.826 290.95 440.726 290.3 441.826 290.1C442.726 289.9 444.076 289.75 445.876 289.65C447.676 289.45 449.476 289.1 451.276 288.6C453.176 288 454.626 287.1 455.626 285.9C456.526 283.7 457.526 281.35 458.626 278.85C459.726 276.25 460.776 274 461.776 272.1C462.776 270.1 463.476 268.85 463.876 268.35C465.576 267.45 467.326 267.1 469.126 267.3C470.926 267.4 472.326 268.25 473.326 269.85C473.826 270.55 474.226 271.05 474.526 271.35C474.926 271.65 475.076 272.1 474.976 272.7C474.976 273.3 474.576 274.4 473.776 276C473.076 277.5 471.876 279.85 470.176 283.05C469.676 284.05 469.226 284.95 468.826 285.75C468.426 286.45 468.226 286.8 468.226 286.8C468.626 286.9 469.226 286.95 470.026 286.95C470.826 286.95 471.826 286.9 473.026 286.8C474.126 286.6 475.326 286.45 476.626 286.35C477.926 286.15 479.076 286.15 480.076 286.35C482.376 286.35 484.076 287 485.176 288.3C486.276 289.6 486.876 291.25 486.976 293.25C487.176 294.35 486.776 295.3 485.776 296.1C484.776 296.9 482.926 297.3 480.226 297.3C479.326 297.3 478.026 297.35 476.326 297.45C474.626 297.55 472.876 297.65 471.076 297.75C469.276 297.85 467.726 298 466.426 298.2C465.226 298.3 464.626 298.45 464.626 298.65C464.326 298.85 463.826 299.65 463.126 301.05C462.526 302.35 461.876 303.95 461.176 305.85C460.576 307.75 460.026 309.55 459.526 311.25C458.826 314.65 458.326 317.95 458.026 321.15C457.726 324.35 457.676 327.15 457.876 329.55C458.176 331.85 458.776 333.5 459.676 334.5C460.576 335.4 461.926 335.4 463.726 334.5C465.626 333.5 467.376 332.35 468.976 331.05C470.776 329.55 472.326 329.1 473.626 329.7C474.926 330.2 475.726 331.3 476.026 333C476.426 334.6 475.976 336.35 474.676 338.25C473.476 340.15 471.776 341.75 469.576 343.05C467.376 344.35 465.126 345.25 462.826 345.75C460.526 346.35 458.526 346.4 456.826 345.9ZM491.634 340.05C491.234 340.05 490.384 339.75 489.084 339.15C487.784 338.55 487.134 338.25 487.134 338.25C487.134 337.85 486.984 337.35 486.684 336.75C486.484 336.15 486.384 335.65 486.384 335.25C485.684 334.85 484.984 334.2 484.284 333.3C483.584 332.4 483.434 331.4 483.834 330.3C484.434 329.2 485.234 327.55 486.234 325.35C487.334 323.05 488.484 320.5 489.684 317.7C490.984 314.8 492.184 312 493.284 309.3C494.384 306.6 495.334 304.3 496.134 302.4C496.934 300.4 497.384 299.2 497.484 298.8C497.484 298.4 497.534 297.7 497.634 296.7C497.834 295.7 498.484 294.85 499.584 294.15C500.884 293.25 502.234 293.2 503.634 294C505.034 294.8 506.234 296.2 507.234 298.2C508.234 300.1 508.734 302.35 508.734 304.95C508.734 305.65 508.234 307.45 507.234 310.35C506.234 313.15 504.884 316.5 503.184 320.4C501.584 324.3 499.784 328.25 497.784 332.25C496.284 335.15 495.134 337.2 494.334 338.4C493.634 339.5 492.734 340.05 491.634 340.05ZM512.034 282.6C510.834 282.6 509.384 282.05 507.684 280.95C506.084 279.85 504.634 278.45 503.334 276.75C502.034 275.05 501.384 273.25 501.384 271.35C501.384 270.85 501.834 269.95 502.734 268.65C503.634 267.25 504.484 265.9 505.284 264.6C506.184 263.3 506.634 262.55 506.634 262.35C507.434 262.35 508.384 262.5 509.484 262.8C510.584 263.1 511.484 263.45 512.184 263.85C513.284 266.35 514.734 268.5 516.534 270.3C518.334 272 519.234 273.95 519.234 276.15C519.234 278.35 518.684 280 517.584 281.1C516.484 282.1 514.634 282.6 512.034 282.6ZM526.628 343.95C525.328 343.95 524.278 343.7 523.478 343.2C522.778 342.7 521.878 342 520.778 341.1C518.878 339.1 517.328 336.95 516.128 334.65C515.028 332.35 514.628 330.35 514.928 328.65C515.228 327.85 515.328 327.1 515.228 326.4C515.228 325.6 515.228 325.2 515.228 325.2C514.728 324.7 514.578 324.4 514.778 324.3C514.978 324.1 515.178 323.8 515.378 323.4C515.978 323.4 516.178 322.85 515.978 321.75C515.778 320.95 516.078 319.25 516.878 316.65C517.778 313.95 518.978 311.4 520.478 309C521.078 308 521.978 306.7 523.178 305.1C524.378 303.4 525.678 301.75 527.078 300.15C528.578 298.45 529.928 297.1 531.128 296.1C533.628 294 535.928 292.3 538.028 291C540.228 289.7 542.428 288.8 544.628 288.3C546.828 287.8 549.078 287.55 551.378 287.55C553.778 287.55 555.728 288.35 557.228 289.95C559.528 290.95 561.128 292.3 562.028 294C563.028 295.7 563.678 297.9 563.978 300.6C564.278 303.6 563.978 307.3 563.078 311.7C562.178 316 559.728 321 555.728 326.7C553.228 330.3 550.778 333.1 548.378 335.1C545.978 337.1 543.328 338.95 540.428 340.65C538.328 342.05 536.078 342.9 533.678 343.2C531.278 343.5 528.928 343.75 526.628 343.95ZM541.928 325.65C544.128 323.75 545.678 321.65 546.578 319.35C547.578 317.05 548.628 314.35 549.728 311.25C550.128 310.65 550.378 309.65 550.478 308.25C550.678 306.85 550.728 305.5 550.628 304.2C550.528 302.8 550.178 302 549.578 301.8C548.678 301.1 547.778 300.95 546.878 301.35C545.978 301.65 544.828 302.3 543.428 303.3C540.428 305.8 537.628 308.7 535.028 312C532.528 315.2 530.778 319.15 529.778 323.85C529.478 326.35 529.728 328.25 530.528 329.55C531.428 330.75 532.828 331.1 534.728 330.6C536.728 330 539.128 328.35 541.928 325.65ZM578.573 339.9C578.173 339.9 577.223 339.55 575.723 338.85C574.223 338.05 573.273 337.45 572.873 337.05C572.173 336.25 571.723 335.4 571.523 334.5C571.323 333.5 571.223 331.6 571.223 328.8C571.223 325.6 571.873 322 573.173 318C574.473 313.9 576.673 308.45 579.773 301.65L585.923 289.2C586.423 288.5 586.873 287.9 587.273 287.4C587.673 286.8 588.123 286.25 588.623 285.75C588.823 285.75 589.073 285.75 589.373 285.75C589.773 285.75 590.073 285.8 590.273 285.9C591.173 286 592.573 286.55 594.473 287.55C596.473 288.55 597.673 290.05 598.073 292.05C598.073 293.35 597.873 294.9 597.473 296.7C597.073 298.4 595.873 300.65 593.873 303.45C593.073 304.45 592.273 305.9 591.473 307.8C590.773 309.7 590.123 311.5 589.523 313.2C589.423 313.4 589.123 313.9 588.623 314.7C588.223 315.4 587.823 316.15 587.423 316.95C587.023 317.65 586.823 318.1 586.823 318.3L586.223 319.65L592.673 313.35C597.173 308.85 600.973 305.65 604.073 303.75C607.173 301.85 609.773 301.05 611.873 301.35C614.073 301.65 615.823 302.9 617.123 305.1C617.823 306.1 618.323 307.2 618.623 308.4C618.923 309.5 619.123 310.8 619.223 312.3C619.323 313.8 619.273 315.7 619.073 318V326.55C620.973 326.05 622.423 325.65 623.423 325.35C624.423 324.95 625.423 324.6 626.423 324.3C627.223 324.1 628.023 323.9 628.823 323.7C629.723 323.5 630.823 323.35 632.123 323.25C632.023 324.55 631.473 326.15 630.473 328.05C629.473 329.95 628.223 331.85 626.723 333.75C625.323 335.65 623.773 337.25 622.073 338.55C620.473 339.85 618.973 340.5 617.573 340.5C616.273 340.5 614.773 340.1 613.073 339.3C611.373 338.4 609.923 336.7 608.723 334.2C608.323 332.9 607.923 331.4 607.523 329.7C607.123 328 606.923 326.2 606.923 324.3V317.7C606.923 317.1 606.873 316.7 606.773 316.5C606.773 316.2 606.723 316.05 606.623 316.05C606.223 316.05 604.923 317.1 602.723 319.2C600.623 321.3 598.473 323.5 596.273 325.8C591.673 330.6 587.823 334.15 584.723 336.45C581.723 338.75 579.673 339.9 578.573 339.9Z" fill="black"/>
<path d="M966.442 642.289C962.257 640.766 957.755 640.317 953.35 640.982C952.833 641.159 952.385 641.492 952.068 641.935C951.751 642.378 951.58 642.909 951.58 643.454C951.58 643.999 951.751 644.53 952.068 644.973C952.385 645.416 952.833 645.749 953.35 645.926C962.302 649.846 977.66 647.091 966.442 642.289ZM956.039 645.82C949.988 643.383 955.543 641.37 957.454 641.37C965.345 641.37 970.406 644.549 966.761 646.526C963.209 647.527 959.419 647.264 956.039 645.785V645.82ZM1050.52 619.511C1049.89 619.626 1049.31 619.921 1048.84 620.362C1048.38 620.802 1048.05 621.369 1047.91 621.991C1047.76 622.614 1047.8 623.265 1048.02 623.866C1048.24 624.467 1048.63 624.991 1049.14 625.373C1050.94 626.443 1052.93 627.135 1055.01 627.409C1057.08 627.682 1059.19 627.53 1061.21 626.962C1064.74 626.08 1067.61 623.431 1064.74 621.136C1064.71 621.065 1055.76 617.851 1050.52 619.511ZM1057.91 626.574C1055.97 626.695 1054.01 626.528 1052.11 626.08C1046.8 623.855 1049.21 620.182 1053.95 620.182C1054.84 620.182 1062.34 620.182 1064.14 621.807C1066.9 624.279 1061.35 626.574 1057.91 626.574ZM1107.38 621.736C1105.76 622.937 1107.17 625.267 1108.59 625.726C1110 626.185 1114.21 626.751 1114.82 624.702C1115.66 621.63 1109.05 620.571 1107.38 621.736ZM1108.62 624.561C1107.1 623.784 1106.82 622.018 1110.07 622.124C1113.33 622.23 1117.43 625.656 1111.14 625.126C1110.26 625.111 1109.39 624.919 1108.59 624.561H1108.62ZM935.197 339.719C935.122 339.719 935.05 339.748 934.996 339.801C934.943 339.854 934.914 339.926 934.914 340.001C934.914 340.076 934.943 340.148 934.996 340.201C935.05 340.254 935.122 340.284 935.197 340.284C937.709 340.284 953.35 343.074 952.89 339.719C952.89 338.942 945.034 331.632 945.812 331.42C946.591 331.208 956.959 334.104 959.224 334.104C959.648 334.104 959.754 333.398 959.224 333.362H958.41C960.857 330.843 962.623 327.744 963.541 324.357C964.482 327.5 965.928 330.47 967.822 333.15C967.928 333.25 968.067 333.305 968.212 333.305C968.356 333.305 968.496 333.25 968.601 333.15C968.955 332.938 969.769 331.808 974.121 328.171C971.432 338.447 970.582 338.765 971.538 339.012C976.626 339.688 981.796 339.425 986.789 338.236C986.843 338.215 986.89 338.179 986.923 338.132C986.956 338.085 986.974 338.028 986.974 337.971C986.974 337.913 986.956 337.857 986.923 337.809C986.89 337.762 986.843 337.726 986.789 337.706C984.666 338.024 974.652 340.037 973.13 337.706C972.069 336.081 975.183 328.983 975.678 326.864C975.699 326.797 975.706 326.726 975.697 326.656C975.689 326.586 975.665 326.519 975.628 326.458C975.591 326.398 975.542 326.346 975.483 326.307C975.425 326.267 975.359 326.241 975.289 326.229C974.404 325.982 970.264 331.773 968.212 331.173C966.159 330.572 964.673 323.898 964.284 321.92C964.284 321.461 963.399 321.391 963.328 321.92C962.677 326.121 960.722 330.012 957.737 333.044C953.396 332.385 949.122 331.345 944.963 329.937C944.875 329.91 944.78 329.91 944.692 329.938C944.604 329.966 944.526 330.019 944.468 330.092C944.411 330.164 944.377 330.252 944.371 330.344C944.364 330.436 944.386 330.528 944.432 330.608C945.494 332.091 952.217 339.26 951.863 340.001C951.509 340.743 938.275 339.754 935.197 339.719ZM1083.82 80.0906C1082.93 82.8346 1081.47 85.3611 1079.54 87.5065C1078.86 88.3187 1077.24 89.5547 1077.38 90.7554C1077.62 92.8742 1082.37 93.7924 1083.92 93.863C1084.01 93.863 1084.09 93.8295 1084.15 93.7699C1084.21 93.7103 1084.24 93.6295 1084.24 93.5452C1084.24 93.4609 1084.21 93.38 1084.15 93.3204C1084.09 93.2608 1084.01 93.2274 1083.92 93.2274C1082.52 93.0681 1081.18 92.5844 1080 91.8148C1077.24 89.4841 1082.3 88.4953 1084.28 80.2318C1084.32 80.1987 1084.34 80.1561 1084.36 80.1083C1084.38 80.0606 1084.38 80.0094 1084.37 79.9602C1084.36 79.911 1084.33 79.8654 1084.3 79.8283C1084.27 79.7912 1084.22 79.7638 1084.17 79.749C1084.13 79.7342 1084.07 79.7325 1084.03 79.7441C1083.98 79.7557 1083.93 79.7802 1083.9 79.815C1083.86 79.8499 1083.83 79.8938 1083.82 79.9422C1083.8 79.9906 1083.8 80.0419 1083.82 80.0906ZM1092.1 103.362C1094.97 103.701 1097.87 102.942 1100.2 101.239C1102.54 99.5365 1104.14 97.0151 1104.69 94.1808C1104.69 93.5805 1103.95 93.1567 1103.7 93.7571C1101.58 98.5598 1097.97 102.939 1092.2 102.691C1091.81 102.691 1091.71 103.292 1092.1 103.362ZM1077.24 69.1432C1076.18 69.2746 1075.16 69.633 1074.26 70.1939C1073.36 70.7548 1072.58 71.5048 1072 72.3921C1071.94 72.4785 1071.9 72.5777 1071.88 72.6822C1071.86 72.7868 1071.87 72.8941 1071.89 72.9961C1071.92 73.098 1071.98 73.1922 1072.05 73.2714C1072.12 73.3506 1072.2 73.413 1072.3 73.4538C1072.4 73.4946 1072.51 73.5128 1072.61 73.5071C1072.72 73.5014 1072.82 73.4719 1072.92 73.4208C1073.01 73.3697 1073.09 73.2983 1073.15 73.2119C1073.21 73.1255 1073.25 73.0264 1073.27 72.9218C1073.7 72.1378 1074.29 71.4585 1075.02 70.9332C1075.74 70.4078 1076.57 70.0497 1077.45 69.8848C1077.54 69.848 1077.61 69.7803 1077.65 69.6947C1077.69 69.6091 1077.7 69.5114 1077.67 69.4201C1077.64 69.3289 1077.59 69.2503 1077.51 69.1993C1077.43 69.1483 1077.33 69.1283 1077.24 69.1432ZM1096.03 69.1785C1097.11 69.3614 1098.15 69.7702 1099.07 70.3785C1099.99 70.9868 1100.78 71.7811 1101.37 72.7099C1101.45 72.8411 1101.58 72.9352 1101.73 72.9716C1101.88 73.008 1102.03 72.9838 1102.16 72.9042C1102.3 72.8246 1102.39 72.6961 1102.43 72.5471C1102.46 72.3981 1102.44 72.2407 1102.36 72.1096C1101.67 71.0427 1100.73 70.1639 1099.62 69.5533C1098.51 68.9426 1097.26 68.6196 1095.99 68.6135C1095.53 68.6135 1095.53 69.1432 1096.03 69.1785ZM1075.18 78.113C1074.7 79.5136 1074.43 80.9769 1074.37 82.4566C1074.37 82.5877 1074.42 82.7135 1074.51 82.8062C1074.61 82.8989 1074.73 82.951 1074.86 82.951C1075 82.951 1075.12 82.8989 1075.21 82.8062C1075.31 82.7135 1075.36 82.5877 1075.36 82.4566C1075.71 81.0855 1075.97 79.6937 1076.14 78.2895C1076.14 78.1752 1076.1 78.065 1076.02 77.9776C1075.95 77.8902 1075.85 77.831 1075.73 77.8102C1075.62 77.7894 1075.5 77.8082 1075.4 77.8634C1075.3 77.9186 1075.23 78.0068 1075.18 78.113ZM1095.53 82.3506C1095.87 80.6759 1096.04 78.9734 1096.06 77.2654C1096.06 76.6651 1095.07 76.5239 1094.96 77.2654C1094.6 78.8884 1094.42 80.5468 1094.43 82.2094C1094.44 82.3377 1094.5 82.4584 1094.59 82.5513C1094.68 82.6442 1094.8 82.7039 1094.92 82.7203C1095.05 82.7368 1095.18 82.7092 1095.29 82.6419C1095.4 82.5747 1095.49 82.4719 1095.53 82.3506ZM1422.96 581.407C1418.28 583.802 1414.15 587.132 1410.82 591.189C1407 581.902 1411.24 573.709 1416.09 565.728C1416.14 565.621 1416.16 565.5 1416.14 565.382C1416.12 565.265 1416.06 565.158 1415.97 565.076C1415.88 564.993 1415.77 564.94 1415.66 564.924C1415.54 564.908 1415.42 564.93 1415.31 564.986C1407.73 570.376 1401.4 577.339 1396.77 585.398C1396.77 584.056 1396.77 582.749 1396.52 581.372C1396.52 581.292 1396.51 581.212 1396.47 581.138C1396.44 581.065 1396.39 580.999 1396.33 580.945C1396.27 580.892 1396.2 580.852 1396.12 580.828C1396.05 580.804 1395.97 580.797 1395.89 580.807C1395.32 580.807 1395.39 580.807 1394.19 585.398C1393.13 581.866 1392.06 578.335 1391.04 575.051C1391.04 574.556 1390.01 574.451 1389.91 575.051C1389.51 577.681 1389.45 580.351 1389.73 582.997C1383.93 579.01 1378.36 574.694 1373.06 570.072C1372.95 570.005 1372.83 569.977 1372.7 569.992C1372.57 570.007 1372.46 570.064 1372.37 570.154C1372.28 570.244 1372.22 570.361 1372.2 570.487C1372.19 570.613 1372.22 570.74 1372.28 570.849C1377.22 576.268 1381.77 582.027 1385.91 588.082C1386.19 588.506 1386.86 588.082 1386.58 587.693C1375.26 570.495 1372.18 572.473 1390.12 584.692C1390.58 585.009 1391 584.48 1390.93 584.021C1390.67 582.078 1390.59 580.115 1390.72 578.158L1393.59 587.729C1393.63 587.877 1393.74 588.001 1393.88 588.073C1394.02 588.146 1394.18 588.162 1394.33 588.117C1394.79 588.117 1394.72 587.799 1395.5 584.939V587.446C1395.49 587.583 1395.53 587.719 1395.61 587.831C1395.69 587.943 1395.8 588.024 1395.93 588.062C1396.07 588.099 1396.21 588.089 1396.33 588.035C1396.46 587.981 1396.56 587.885 1396.63 587.764C1400.78 579.99 1406.49 573.15 1413.4 567.67C1409.19 574.91 1405.26 583.597 1409.86 591.542C1409.98 591.826 1410.18 592.07 1410.43 592.249C1410.55 592.283 1410.67 592.285 1410.79 592.254C1410.91 592.223 1411.02 592.16 1411.1 592.072C1413.85 589.042 1416.97 586.362 1420.37 584.091C1418.35 586.586 1417.26 589.709 1417.29 592.92C1417.29 593.414 1418.18 593.591 1418.21 592.92C1418.67 588.804 1420.56 584.979 1423.56 582.114C1424.12 581.831 1423.52 581.196 1422.96 581.407ZM1437.68 283.075C1431.98 284.086 1426.8 287.03 1423.03 291.409C1422.67 285.98 1423.52 280.539 1425.54 275.483C1425.57 275.369 1425.57 275.247 1425.53 275.136C1425.49 275.025 1425.41 274.932 1425.31 274.871C1425.2 274.81 1425.08 274.784 1424.97 274.799C1424.85 274.814 1424.74 274.868 1424.65 274.953C1419.31 280.709 1417.97 289.396 1417.15 289.608C1417.15 289.608 1415.03 287.948 1414.78 287.772C1410.8 284.999 1406.5 282.711 1401.97 280.956C1401.41 280.744 1401.09 281.627 1401.58 281.91C1406.44 284.834 1410.6 288.774 1413.79 293.457C1414 293.811 1414.6 293.457 1414.36 293.104C1412.03 289.555 1409.15 286.397 1405.83 283.746C1410.01 285.729 1413.9 288.271 1417.4 291.303C1417.47 291.368 1417.55 291.414 1417.64 291.437C1417.73 291.46 1417.82 291.459 1417.91 291.434C1418 291.409 1418.08 291.361 1418.15 291.295C1418.21 291.228 1418.26 291.146 1418.28 291.056C1419.07 286.463 1420.86 282.099 1423.52 278.272C1422.11 282.96 1421.61 287.877 1422.07 292.751C1422.07 293.175 1422.71 293.563 1423.03 293.14C1426.3 288.906 1430.89 285.886 1436.08 284.558C1434.59 286.065 1433.41 287.852 1432.62 289.816C1431.82 291.78 1431.43 293.882 1431.45 296C1431.45 296.126 1431.5 296.248 1431.59 296.337C1431.68 296.427 1431.8 296.477 1431.93 296.477C1432.05 296.477 1432.17 296.427 1432.26 296.337C1432.35 296.248 1432.4 296.126 1432.4 296C1432.69 291.412 1434.76 287.118 1438.17 284.029C1438.63 283.605 1438.14 283.005 1437.68 283.075ZM917.681 279.049C920.158 273.258 922.316 254.33 918.353 246.137C917.872 244.794 917.074 243.586 916.027 242.615C914.98 241.644 913.715 240.938 912.337 240.557C908.339 239.816 909.365 235.331 909.4 232.046C909.4 223.571 909.4 192.671 907.596 185.962C904.871 176.533 896.272 167.281 885.656 168.587C882.649 168.976 882.118 170.636 881.905 166.998C881.905 162.337 882.542 101.915 873.13 92.4151C865.557 84.7873 854.092 82.7038 845.529 90.0491C834.099 99.8664 833.675 118.3 832.047 132.426C829.664 149.826 829.963 167.487 832.931 184.796C824.014 183.525 819.308 192.424 817.892 200.052C815.707 212.693 815.266 225.572 816.583 238.332C816.831 241.193 819.733 255.989 819.379 256.731C818.6 258.249 813.611 257.508 807.312 262.346C793.158 273.258 793.158 301.191 804.34 316.412C807.878 321.108 812.974 323.757 813.646 329.937C815.522 351.584 844.432 364.968 867.539 364.227C868.494 388.452 870.087 412.642 870.759 436.867C870.782 436.938 870.827 437 870.888 437.043C870.948 437.087 871.021 437.11 871.095 437.11C871.17 437.11 871.242 437.087 871.303 437.043C871.363 437 871.408 436.938 871.431 436.867C870.759 412.677 870.9 388.311 868.742 364.191C884.029 363.344 898.643 356.775 907.029 343.321C914.107 331.137 915.239 315.07 913.824 301.438C912.996 297.812 912.44 294.129 912.16 290.42C912.408 285.936 916.017 282.969 917.681 279.049ZM895.564 257.861C886.699 271.202 877.082 284.029 866.76 296.283C867.114 307.971 867.822 347.135 869.768 356.881C869.745 356.952 869.7 357.013 869.639 357.057C869.579 357.101 869.506 357.124 869.432 357.124C869.357 357.124 869.285 357.101 869.224 357.057C869.164 357.013 869.119 356.952 869.096 356.881C867.054 345.695 866 334.351 865.946 322.98C859.487 320.613 853.549 317.015 848.466 312.386C843.83 308.36 837.567 303.487 835.373 297.554C835.161 296.989 836.045 296.636 836.364 297.165C839.677 302.468 843.878 307.162 848.784 311.044C853.785 315.675 859.605 319.339 865.946 321.85C865.946 316.2 864.496 272.41 864.036 256.307C858.692 252.105 853.42 247.867 848.395 243.17C844.503 239.639 839.549 235.26 838.027 229.892C837.85 229.327 838.735 228.939 838.982 229.504C844.043 239.816 854.941 247.973 863.965 255.036C863.965 253.411 861.382 177.345 860.426 140.831C860.463 140.666 860.555 140.519 860.687 140.413C860.819 140.307 860.983 140.25 861.152 140.25C861.321 140.25 861.485 140.307 861.617 140.413C861.749 140.519 861.84 140.666 861.877 140.831C862.691 162.866 863.328 184.867 864 206.903C868.606 203.416 872.549 199.135 875.642 194.261C875.75 194.133 875.899 194.047 876.064 194.019C876.229 193.99 876.399 194.021 876.543 194.106C876.687 194.191 876.797 194.324 876.852 194.481C876.907 194.639 876.905 194.811 876.845 194.967C873.496 200.185 869.127 204.677 864 208.174C864.389 221.594 866.194 279.085 866.69 294.411C876.385 282.298 885.303 269.691 894.291 256.908C894.821 256.307 896.272 257.013 895.564 257.826V257.861Z" fill="black"/>
<path d="M827.456 610.891C824.886 609.952 822.123 609.676 819.418 610.085C819.102 610.194 818.826 610.4 818.632 610.673C818.437 610.946 818.332 611.273 818.332 611.609C818.332 611.944 818.437 612.272 818.632 612.545C818.826 612.818 819.102 613.023 819.418 613.132C824.915 615.548 834.343 613.85 827.456 610.891ZM821.069 613.067C817.355 611.565 820.765 610.325 821.938 610.325C826.783 610.325 829.889 612.283 827.652 613.502C825.471 614.118 823.144 613.957 821.069 613.045V613.067ZM879.071 596.854C878.684 596.925 878.326 597.107 878.041 597.379C877.756 597.65 877.557 597.999 877.467 598.383C877.377 598.766 877.4 599.168 877.535 599.538C877.67 599.908 877.909 600.231 878.224 600.467C879.328 601.126 880.554 601.553 881.827 601.721C883.101 601.889 884.396 601.796 885.632 601.446C887.804 600.902 889.564 599.27 887.804 597.855C887.783 597.812 882.286 595.832 879.071 596.854ZM883.612 601.207C882.416 601.281 881.215 601.179 880.049 600.902C876.79 599.531 878.268 597.268 881.179 597.268C881.722 597.268 886.327 597.268 887.435 598.269C889.129 599.792 885.719 601.207 883.612 601.207ZM913.981 598.225C912.982 598.965 913.851 600.402 914.72 600.684C915.589 600.967 918.174 601.316 918.543 600.053C919.064 598.16 915.002 597.507 913.981 598.225ZM914.741 599.966C913.807 599.488 913.634 598.399 915.632 598.465C917.631 598.53 920.151 600.641 916.284 600.314C915.744 600.305 915.212 600.187 914.72 599.966H914.741ZM808.274 424.438C808.228 424.438 808.184 424.456 808.151 424.489C808.119 424.521 808.1 424.566 808.1 424.612C808.1 424.658 808.119 424.702 808.151 424.735C808.184 424.768 808.228 424.786 808.274 424.786C809.817 424.786 819.418 426.505 819.136 424.438C819.136 423.959 814.313 419.454 814.791 419.324C815.269 419.193 821.634 420.978 823.025 420.978C823.285 420.978 823.35 420.542 823.025 420.521H822.525C824.028 418.968 825.111 417.059 825.675 414.971C826.252 416.908 827.14 418.738 828.303 420.39C828.368 420.451 828.453 420.485 828.542 420.485C828.631 420.485 828.717 420.451 828.781 420.39C828.999 420.26 829.498 419.563 832.17 417.322C830.519 423.654 829.998 423.85 830.584 424.002C833.708 424.419 836.882 424.257 839.947 423.524C839.98 423.511 840.009 423.489 840.029 423.46C840.05 423.431 840.061 423.396 840.061 423.361C840.061 423.325 840.05 423.29 840.029 423.261C840.009 423.232 839.98 423.21 839.947 423.197C838.644 423.393 832.496 424.634 831.562 423.197C830.91 422.196 832.822 417.822 833.126 416.517C833.139 416.475 833.143 416.431 833.138 416.388C833.132 416.345 833.118 416.303 833.095 416.266C833.073 416.229 833.042 416.197 833.007 416.173C832.971 416.149 832.93 416.132 832.887 416.125C832.344 415.972 829.802 419.541 828.542 419.171C827.282 418.801 826.37 414.689 826.131 413.47C826.131 413.187 825.588 413.143 825.545 413.47C825.145 416.058 823.944 418.456 822.112 420.325C819.447 419.918 816.823 419.278 814.27 418.41C814.216 418.393 814.158 418.394 814.103 418.411C814.049 418.428 814.001 418.461 813.966 418.505C813.931 418.55 813.91 418.604 813.906 418.661C813.902 418.718 813.915 418.774 813.944 418.823C814.596 419.737 818.723 424.155 818.506 424.612C818.289 425.069 810.164 424.459 808.274 424.438ZM1116.75 389.532C1113.25 390.155 1110.07 391.969 1107.76 394.668C1107.53 391.322 1108.06 387.969 1109.3 384.853C1109.32 384.784 1109.32 384.708 1109.29 384.64C1109.27 384.572 1109.22 384.514 1109.15 384.476C1109.09 384.439 1109.02 384.423 1108.95 384.432C1108.87 384.442 1108.81 384.475 1108.75 384.527C1105.47 388.074 1104.65 393.428 1104.15 393.558C1104.15 393.558 1102.85 392.535 1102.69 392.426C1100.25 390.718 1097.61 389.308 1094.83 388.226C1094.48 388.096 1094.29 388.64 1094.59 388.814C1097.57 390.616 1100.13 393.044 1102.09 395.93C1102.22 396.148 1102.59 395.93 1102.43 395.712C1101 393.525 1099.24 391.579 1097.2 389.946C1099.77 391.167 1102.16 392.734 1104.3 394.603C1104.34 394.643 1104.39 394.671 1104.45 394.685C1104.5 394.699 1104.56 394.699 1104.62 394.683C1104.67 394.668 1104.72 394.638 1104.76 394.597C1104.8 394.556 1104.83 394.506 1104.84 394.45C1105.33 391.62 1106.42 388.931 1108.06 386.573C1107.19 389.461 1106.89 392.491 1107.17 395.495C1107.17 395.756 1107.56 395.995 1107.76 395.734C1109.76 393.126 1112.59 391.264 1115.77 390.446C1114.86 391.375 1114.13 392.476 1113.64 393.686C1113.16 394.896 1112.91 396.192 1112.93 397.497C1112.93 397.575 1112.96 397.65 1113.01 397.705C1113.07 397.76 1113.14 397.791 1113.22 397.791C1113.3 397.791 1113.37 397.76 1113.43 397.705C1113.48 397.65 1113.51 397.575 1113.51 397.497C1113.69 394.67 1114.96 392.023 1117.05 390.12C1117.34 389.859 1117.03 389.489 1116.75 389.532ZM797.521 387.051C799.042 383.482 800.367 371.818 797.934 366.77C797.638 365.942 797.149 365.198 796.506 364.599C795.863 364.001 795.086 363.566 794.241 363.331C791.786 362.874 792.416 360.111 792.438 358.087C792.438 352.864 792.438 333.823 791.33 329.688C789.657 323.878 784.378 318.176 777.861 318.981C776.015 319.221 775.689 320.243 775.559 318.002C775.559 315.129 775.95 277.895 770.171 272.042C765.522 267.341 758.484 266.057 753.227 270.584C746.21 276.633 745.949 287.993 744.95 296.697C743.488 307.42 743.671 318.303 745.493 328.97C740.019 328.186 737.13 333.67 736.261 338.371C734.919 346.16 734.648 354.097 735.457 361.96C735.609 363.723 737.39 372.841 737.173 373.298C736.695 374.234 733.632 373.777 729.765 376.758C721.076 383.482 721.076 400.696 727.941 410.075C730.113 412.969 733.241 414.601 733.654 418.41C734.805 431.75 752.553 439.997 766.739 439.54C767.325 454.469 768.303 469.375 768.716 484.304C768.73 484.347 768.758 484.385 768.795 484.412C768.832 484.439 768.876 484.453 768.922 484.453C768.968 484.453 769.012 484.439 769.049 484.412C769.086 484.385 769.114 484.347 769.128 484.304C768.716 469.397 768.803 454.382 767.477 439.518C776.862 438.996 785.834 434.949 790.982 426.657C795.327 419.15 796.022 409.248 795.153 400.848C794.645 398.614 794.304 396.344 794.132 394.059C794.284 391.295 796.5 389.467 797.521 387.051ZM783.944 373.994C778.501 382.215 772.598 390.12 766.261 397.671C766.478 404.874 766.913 429.008 768.107 435.014C768.093 435.057 768.065 435.095 768.028 435.122C767.991 435.149 767.947 435.163 767.901 435.163C767.855 435.163 767.811 435.149 767.774 435.122C767.737 435.095 767.709 435.057 767.695 435.014C766.441 428.12 765.794 421.13 765.761 414.123C761.795 412.664 758.151 410.447 755.03 407.594C752.184 405.113 748.339 402.11 746.992 398.454C746.862 398.106 747.405 397.889 747.6 398.215C749.634 401.482 752.213 404.375 755.225 406.767C758.295 409.621 761.868 411.879 765.761 413.426C765.761 409.945 764.871 382.96 764.588 373.037C761.308 370.447 758.071 367.836 754.986 364.942C752.597 362.766 749.555 360.067 748.621 356.759C748.513 356.411 749.056 356.172 749.208 356.52C752.314 362.874 759.005 367.901 764.545 372.254C764.545 371.253 762.959 324.378 762.372 301.877C762.395 301.775 762.451 301.684 762.532 301.619C762.613 301.554 762.714 301.519 762.818 301.519C762.921 301.519 763.022 301.554 763.103 301.619C763.184 301.684 763.241 301.775 763.263 301.877C763.763 315.456 764.154 329.013 764.566 342.593C767.394 340.444 769.815 337.805 771.713 334.802C771.78 334.723 771.871 334.67 771.973 334.653C772.074 334.635 772.178 334.654 772.267 334.707C772.355 334.759 772.422 334.841 772.456 334.938C772.49 335.035 772.489 335.141 772.452 335.237C770.396 338.453 767.714 341.221 764.566 343.376C764.805 351.645 765.913 387.073 766.217 396.518C772.17 389.053 777.644 381.285 783.162 373.407C783.488 373.037 784.378 373.472 783.944 373.973V373.994Z" fill="black"/>
<path d="M1418.96 198.639C1430.46 183.49 1434.99 163.996 1437.96 145.668C1441.38 124.563 1442.11 103.109 1440.12 81.8208C1439.45 74.758 1438.6 66.7418 1433.54 61.1622C1431.09 58.443 1427.8 56.6067 1425.54 53.7816C1421.5 48.9082 1423.59 41.0685 1423.52 35.1358C1423.52 27.1195 1421.86 18.3617 1415.95 12.4643C1410.04 6.56682 1400.49 4.65987 1392.7 5.04832C1389.16 5.28038 1385.72 6.32535 1382.65 8.10174C1379.58 9.87813 1376.97 12.3379 1375.01 15.2894C1373.08 18.383 1371.55 21.7046 1370.44 25.1773C1366.9 34.5355 1357.63 35.4183 1353.07 43.823C1351.36 47.7956 1350.24 51.9948 1349.74 56.2889C1348.65 60.7737 1341.25 70.4144 1340.61 71.721C1294.93 71.1207 1274.65 71.3679 1274.65 71.3679C1274.62 69.4552 1274.2 67.569 1273.42 65.8236C1271.43 62.0198 1270.03 57.9352 1269.27 53.7109C1266.05 45.9066 1259.93 41.9867 1252.36 38.9497C1244.19 35.6655 1237.18 28.3555 1227.8 28.9206C1219.37 29.1672 1211.32 32.4977 1205.19 38.2787C1199.14 44.9178 1199.28 50.1442 1196.17 55.4413C1194.95 57.3432 1193.84 59.3121 1192.84 61.3388C1191.6 64.9981 1190.74 68.772 1190.26 72.6039C1173.81 74.4481 1157.25 75.0384 1140.72 74.3696C1141.57 69.7082 1142.95 65.082 1144.26 60.5972C1152.89 58.7608 1153.7 37.184 1135.09 35.1358C1133.92 32.6285 1135.52 30.545 1137.29 28.9206C1136.01 28.6776 1134.7 28.7536 1133.47 29.142C1132.23 29.5303 1131.11 30.2187 1130.21 31.1453C1130.6 29.8457 1130.72 28.4772 1130.55 27.1291C1130.39 25.781 1129.93 24.4834 1129.23 23.3207C1128.53 22.1581 1127.58 21.1566 1126.47 20.3812C1125.35 19.6059 1124.08 19.0742 1122.74 18.8208C1123.99 20.4904 1124.78 22.455 1125.05 24.5224C1125.31 26.5898 1125.02 28.6893 1124.23 30.6156C1121.57 22.9172 1105.97 11.9345 1085.94 13.7709C1087.57 15.6425 1088.49 18.962 1085.66 19.9155C1071.89 24.5063 1064.04 16.8785 1064.18 15.9956C1060.22 28.9912 1065.52 31.4985 1064.39 32.1341C1061.4 34.1827 1059.06 37.0449 1057.65 40.3812C1056.24 43.7175 1055.81 47.3877 1056.43 50.9565C1057 49.9013 1057.77 48.9706 1058.71 48.2193C1059.64 47.468 1060.72 46.9113 1061.87 46.5822C1063.03 46.253 1064.24 46.158 1065.43 46.3027C1066.62 46.4475 1067.77 46.8291 1068.81 47.4251C1066.31 55.2882 1064.59 63.3791 1063.68 71.5798C1052.71 71.2267 1009.72 70.7676 999.564 72.4626C1000.02 61.0916 996.45 60.1381 995.176 54.5232C991.142 36.5837 983.357 35.1005 971.467 29.5209C962.904 25.5304 955.438 18.2911 945.317 18.9267C935.197 19.5624 925.006 23.1997 918.672 30.8275C912.338 38.4553 913.612 42.8696 908.551 50.9565C904.718 56.7155 902.652 63.4655 902.606 70.3791C877.836 71.8976 791.459 69.6728 769.166 69.5316C769.073 69.5316 768.983 69.5688 768.916 69.635C768.85 69.7012 768.812 69.7911 768.812 69.8847C768.812 69.9784 768.85 70.0682 768.916 70.1344C768.983 70.2007 769.073 70.2379 769.166 70.2379C791.459 70.5204 880.49 72.498 902.642 71.827C903.208 84.646 911.311 89.2721 916.796 94.8517C919.859 98.6033 923.882 101.458 928.438 103.115C933.357 104.563 943.973 103.61 946.379 101.879C947.051 110.46 948.148 119.006 949.564 127.411C949.564 128.223 951.121 128.047 951.014 127.411C950.13 118.971 949.28 110.566 948.644 102.162C948.856 102.162 952.571 103.963 954.234 104.598C959.168 106.145 964.401 106.494 969.497 105.615C974.593 104.737 979.406 102.657 983.534 99.5484C991.46 92.9094 998.75 84.1516 999.705 73.5574C1005.33 72.8158 1053.31 73.5574 1063.68 73.2395C1063.11 79.7712 1063.41 86.3499 1064.57 92.8035C1066.94 105.305 1072.67 112.191 1088.95 116.429C1087.99 122.891 1089.48 130.907 1081.38 133.45C1056.92 137.546 1035.98 148.635 1016.34 163.361C1013.15 165.727 1010.85 166.08 1011.7 169.964C1009.04 171.162 1006.47 172.53 1003.99 174.061C1004.73 170.777 1010.57 130.342 1012.37 113.427C1012.59 113.294 1012.79 113.14 1012.98 112.968C1014.14 114.168 1015.95 113.321 1016.73 111.979C1018.29 111.143 1019.59 109.9 1020.5 108.383C1021.41 106.865 1021.89 105.13 1021.89 103.362C1024.79 99.3366 1026.39 99.4778 1025.78 97.8887C1025.18 96.2996 1022.03 95.8405 1020.55 96.794C1017.36 91.9913 1008.98 91.9913 1004.27 94.216C995.388 98.4184 996.698 108.342 993.159 115.969C983.923 136.381 960.922 156.475 952.147 190.129C948.608 203.972 950.731 218.38 963.47 226.749C980.278 237.732 1004.23 229.468 1019.52 219.192C1019.84 219.898 1020.26 221.488 1021.79 221.346C1027 220.715 1032.01 218.89 1036.4 216.014C1035.02 227.561 1034.24 261.216 1034.06 272.869C1034.06 282.581 1033.57 297.589 1035.2 298.896C1036.6 299.848 1038.17 300.519 1039.83 300.873C1038.77 311.467 1043.37 348.83 1043.37 351.019C1056.85 337.176 1058.55 335.763 1067.33 327.076C1067.38 327.025 1067.46 326.998 1067.53 327.001C1067.61 327.004 1067.68 327.038 1067.73 327.094C1067.79 327.15 1067.81 327.224 1067.81 327.301C1067.81 327.377 1067.77 327.448 1067.72 327.5C1061.98 333.715 1031.23 366.593 1030.14 369.877C1029.04 373.161 1035.48 379.2 1035.69 379.376C1012.09 407.627 1011.35 415.22 1005.3 451.664C989.62 460.21 967.115 465.789 966.372 462.752C965.664 460.104 968.424 456.784 970.264 455.372C970.76 455.019 970.689 454.1 969.946 454.136C964.737 454.509 959.849 456.784 956.216 460.528C956.23 458.202 956.746 455.907 957.729 453.798C958.712 451.689 960.139 449.817 961.913 448.309C962.55 447.779 961.913 446.967 961.135 447.25C954.06 450.46 948.09 455.68 943.973 462.258C942.491 458.496 942.378 454.335 943.654 450.498C943.866 449.792 943.017 449.616 942.522 450.004C937.603 454.065 937.037 462.752 936.789 462.929C935.834 463.6 922.458 454.948 912.019 457.102C911.382 457.102 911.134 458.162 912.019 458.303C918.193 459.575 923.662 463.117 927.341 468.226C918.235 473.962 908.374 478.407 898.042 481.433C860.887 493.158 813.823 495.912 775.642 494.288C775.539 494.288 775.44 494.329 775.367 494.402C775.294 494.474 775.253 494.573 775.253 494.676C775.253 494.779 775.294 494.878 775.367 494.951C775.44 495.024 775.539 495.065 775.642 495.065C805.772 496.653 835.986 495.138 865.805 490.544C885.586 487.19 911.807 480.551 928.332 468.968C928.427 468.903 928.504 468.816 928.558 468.714C928.612 468.613 928.64 468.5 928.64 468.385C928.64 468.27 928.612 468.157 928.558 468.056C928.504 467.954 928.427 467.867 928.332 467.802C925.588 463.544 921.58 460.247 916.867 458.373C923.95 458.967 930.797 461.204 936.86 464.907C936.943 464.946 937.033 464.967 937.125 464.969C937.217 464.97 937.308 464.952 937.392 464.915C937.476 464.878 937.551 464.824 937.612 464.755C937.673 464.687 937.718 464.606 937.745 464.518C938.339 460.635 939.66 456.897 941.637 453.5C941.179 457.045 941.744 460.647 943.265 463.882C943.326 463.977 943.409 464.055 943.508 464.109C943.607 464.163 943.718 464.192 943.831 464.192C943.944 464.192 944.055 464.163 944.154 464.109C944.253 464.055 944.336 463.977 944.397 463.882C947.702 458.131 952.46 453.346 958.198 450.004C955.644 453.42 954.458 457.663 954.871 461.905C954.87 462.036 954.908 462.165 954.98 462.275C955.051 462.385 955.154 462.472 955.274 462.525C955.395 462.577 955.528 462.593 955.658 462.571C955.788 462.549 955.908 462.489 956.004 462.399C958.996 458.705 963.213 456.2 967.893 455.336C966.719 456.59 965.866 458.109 965.41 459.764C964.954 461.419 964.908 463.159 965.275 464.836C965.324 465.003 965.437 465.144 965.589 465.23C965.741 465.315 965.92 465.339 966.089 465.295C979.323 463.353 993.584 460.104 1005.01 452.759C1000.77 478.22 993.23 532.533 992.38 561.031C991.416 561.416 990.549 562.007 989.839 562.764C989.13 563.521 988.596 564.424 988.276 565.41C987.285 567.564 984.737 574.91 962.55 574.768C960.887 574.768 958.233 574.027 956.287 575.404C952.041 578.476 953.633 584.868 956.888 587.976C961.701 592.531 969.84 595.038 975.997 597.334C983.074 599.806 992.451 603.443 1000.02 601.889C1009.08 600.088 1011.45 586.492 1011.06 577.17C1019.73 554.745 1034.81 535.499 1044.93 513.604C1054.02 494.005 1063.44 476.489 1069.24 457.102C1070.44 453.076 1070.51 449.368 1074.16 446.79C1076.28 445.307 1095.07 433.936 1101.26 428.427C1103.64 430.297 1106.21 431.896 1108.94 433.195C1112.48 433.866 1123.1 421.541 1125.61 419.069C1135.08 426.192 1145.92 431.29 1157.46 434.042C1165.21 436.049 1173.07 437.652 1180.99 438.845C1209.97 443.471 1257.53 449.086 1263.51 449.439C1264.2 450.241 1265.08 450.867 1266.06 451.266C1267.05 451.665 1268.11 451.825 1269.17 451.734C1271.58 451.734 1285.34 449.333 1288.52 471.087C1289.69 478.361 1298.47 481.327 1302.68 471.334C1305.19 465.295 1304.02 456.431 1303.46 450.145C1302.79 442.553 1302.11 432.841 1297.83 426.344C1294.08 420.658 1285.38 419.599 1277.52 423.165C1274.84 424.184 1272.23 425.363 1269.7 426.697C1238.56 415.432 1209.54 398.905 1180.28 383.755C1175.57 381.318 1171.01 378.564 1166.37 375.951C1168.17 373.596 1169.86 371.124 1171.47 368.535C1185.16 360.519 1198.08 349.324 1204.77 335.657C1206.56 332.458 1207.65 328.91 1207.96 325.255C1208.26 321.6 1207.78 317.922 1206.54 314.469C1203 305.747 1194.15 300.555 1186.01 296.812C1185.89 266.644 1182.47 236.58 1175.82 207.15C1183.15 210.681 1185.91 212.271 1188.74 212.235C1190.86 212.235 1191.14 211.352 1192.28 209.481C1193.41 207.609 1194.33 205.949 1195.35 204.219C1202.01 210.187 1212.52 211.564 1220.9 213.718C1215.91 228.553 1213.96 244.237 1215.17 259.838C1215.95 277.287 1217.89 294.664 1220.97 311.856C1218.43 314.328 1213.08 311.856 1211.67 313.763C1209.72 316.376 1216.13 318.495 1218.18 319.095C1216.81 322.076 1216.35 325.389 1216.83 328.63C1218.64 332.868 1225.08 334.951 1229.32 334.457C1233.57 333.962 1234.1 330.219 1235.16 327.006C1236.66 322.673 1237.31 318.093 1237.07 313.516C1243.48 283.605 1261.84 257.013 1264.5 226.149C1265.91 213.52 1263.45 200.759 1257.42 189.564C1253.14 182.042 1246.1 177.168 1239.2 172.26C1230.61 166.139 1221.8 160.383 1212.76 154.991C1213.4 152.166 1213.75 151.778 1213.15 151.46C1211.74 150.683 1210.25 149.977 1208.8 149.27C1249.35 130.943 1293.73 129.707 1336.79 120.772C1334.92 134.898 1333.5 155.592 1336.51 165.444C1281.06 198.11 1283.85 258.108 1321.15 277.213C1342.98 288.337 1367.15 286.289 1390.22 304.899C1406.78 318.354 1415.88 338.235 1419.06 359C1426.14 404.908 1406.75 460.81 1380.92 499.726C1355.09 538.642 1317.54 570.354 1277.94 595.745C1209.19 639.499 1171.5 644.231 1172.28 645.749C1172.31 645.828 1172.36 645.894 1172.43 645.934C1172.51 645.973 1172.59 645.983 1172.67 645.961C1204.52 637.91 1234.92 622.513 1263.12 606.162C1302.64 583.208 1339.91 554.357 1368.67 518.69C1398.36 481.787 1419.31 434.325 1421.75 386.439C1424.12 340.531 1406.68 302.498 1362.73 288.584C1340.12 281.521 1308.62 279.473 1298.22 248.785C1289.34 222.476 1300.2 188.363 1336.76 166.61C1343.3 193.907 1367.65 212.023 1388.84 212.271C1388.84 225.407 1389.94 238.544 1390.44 251.646C1390.44 252.175 1391.36 252.175 1391.29 251.646C1390.9 238.544 1391.29 225.372 1390.22 212.271C1395.69 212.075 1401.06 210.765 1406 208.421C1410.94 206.077 1415.35 202.748 1418.96 198.639ZM995.105 83.975C993.159 89.1661 987.002 95.0636 982.756 98.7715C978.852 101.725 974.311 103.729 969.495 104.624C964.679 105.519 959.72 105.28 955.013 103.927C952.854 103.15 948.431 100.855 948.431 100.855C948.431 100.855 948.113 96.7586 948.007 94.7104C955.619 87.7114 962.047 79.5309 967.044 70.4851C967.044 70.2026 966.761 69.9554 966.584 70.2026C961.454 78.5756 955.124 86.1543 947.794 92.6975C947.193 82.7743 946.803 72.8511 946.733 62.8926C952.891 58.242 957.532 51.8774 960.073 44.5999C960.25 44.2468 959.613 43.9643 959.436 44.3527C956.126 50.5617 951.809 56.1818 946.662 60.9856C946.662 55.6885 946.662 50.3914 946.91 45.0943C946.91 45.01 946.876 44.9292 946.816 44.8696C946.757 44.81 946.676 44.7765 946.591 44.7765C946.507 44.7765 946.426 44.81 946.366 44.8696C946.306 44.9292 946.273 45.01 946.273 45.0943C945.6 53.4991 945.176 61.9744 945.07 70.4851C940.862 69.3625 936.827 67.6756 933.074 65.4705C932.684 65.188 932.366 65.7883 932.72 66.0708C936.376 68.96 940.612 71.0314 945.14 72.1448C945.14 81.6796 946.096 100.749 946.096 100.749C943.024 102.347 939.63 103.232 936.168 103.336C932.706 103.44 929.265 102.761 926.103 101.349C921.149 99.3012 917.999 94.6751 914.178 91.1084C910.203 87.9649 907.087 83.8717 905.119 79.2076C903.716 74.7263 903.341 69.9876 904.021 65.342C904.701 60.6965 906.418 56.2628 909.047 52.369C911.239 48.7228 913.03 44.8511 914.39 40.8213C918.672 29.9093 934.772 17.8673 953.314 21.3634C957.531 22.7515 961.472 24.8671 964.956 27.6139C972.741 32.3107 981.942 33.9351 987.993 41.2451C991.531 45.3415 992.168 50.1089 994.008 55.0529C996.365 59.479 997.688 64.3799 997.878 69.3885C998.068 74.3971 997.12 79.3837 995.105 83.975ZM1297.65 428.816C1301.9 437.468 1303.25 457.703 1302.36 467.131C1301.97 471.157 1298.33 479.103 1292.98 476.101C1294.16 474.247 1294.87 472.141 1295.07 469.956C1295.86 464.104 1296.24 458.204 1296.2 452.299C1296.5 445.811 1295.6 439.323 1293.55 433.159C1292.56 429.16 1290.5 425.501 1287.6 422.565C1289.73 422.4 1291.85 422.917 1293.66 424.042C1295.47 425.167 1296.87 426.84 1297.65 428.816ZM1283.5 433.477C1283.82 431.5 1285.8 429.381 1287.5 430.405C1288.45 431.111 1288.1 432.7 1287.5 433.689C1286.19 436.514 1283.04 435.878 1283.43 433.583L1283.5 433.477ZM1281.52 439.657C1283 438.633 1285.87 436.867 1287.78 437.362C1288.11 437.433 1288.4 437.605 1288.62 437.852C1288.84 438.099 1288.98 438.409 1289.02 438.739C1289.02 439.445 1288.56 439.834 1288.03 440.187C1286.84 441 1285.57 441.687 1284.24 442.235C1283.55 442.631 1282.73 442.757 1281.94 442.588C1281.67 442.487 1281.43 442.317 1281.24 442.094C1281.06 441.871 1280.93 441.603 1280.88 441.318C1280.83 441.032 1280.86 440.738 1280.96 440.465C1281.06 440.192 1281.23 439.95 1281.45 439.763L1281.52 439.657ZM1282.3 444.813C1284.46 443.789 1288.77 441.282 1290.54 443.294C1292.31 445.307 1289.41 446.579 1288.06 447.32C1286.72 448.062 1283.5 450.039 1281.41 448.945C1279.82 448.203 1279.54 446.225 1282.23 444.919L1282.3 444.813ZM1196.66 56.6773C1198.93 53.1459 1199.46 49.0142 1201.58 45.4475C1204.87 39.9508 1209.79 35.6112 1215.66 33.0297C1221.53 30.4482 1228.06 29.7527 1234.35 31.0394C1238.3 32.6754 1242.08 34.7231 1245.6 37.1487C1252.08 40.892 1259.26 42.0927 1264.32 48.1313C1267.08 51.8225 1268.92 56.1221 1269.66 60.6678C1270.62 64.7642 1273.03 67.7306 1273.2 72.2508C1273.79 77.7808 1272.48 83.3475 1269.49 88.0361C1266.87 91.8621 1263.6 95.1975 1259.83 97.8887C1256.29 100.184 1243.12 105.411 1234.88 102.197C1233.39 101.632 1229.96 99.7956 1229.96 99.7956C1229.96 99.7956 1229.71 96.2642 1229.61 94.5692C1236.21 88.5069 1241.79 81.4242 1246.13 73.5927C1246.15 73.5602 1246.16 73.5244 1246.17 73.4873C1246.17 73.4502 1246.17 73.4126 1246.16 73.3765C1246.15 73.3405 1246.13 73.3067 1246.11 73.2771C1246.09 73.2475 1246.06 73.2228 1246.03 73.2042C1245.99 73.1857 1245.96 73.1737 1245.92 73.169C1245.88 73.1643 1245.85 73.1669 1245.81 73.1768C1245.77 73.1866 1245.74 73.2034 1245.71 73.2263C1245.68 73.2492 1245.66 73.2777 1245.64 73.3102C1241.21 80.4845 1235.78 86.9894 1229.5 92.6269C1228.98 84.128 1228.66 75.5938 1228.55 67.0243C1233.98 62.9668 1238.06 57.3668 1240.26 50.9565C1240.26 50.6033 1239.8 50.3208 1239.62 50.7093C1236.73 55.954 1233.04 60.7192 1228.69 64.8348V51.3096C1228.69 50.8858 1228.05 50.9211 1228.02 51.3096C1227.45 58.5372 1227.09 65.8354 1226.95 73.2042C1223.34 72.2745 1219.88 70.8483 1216.66 68.9666C1216.27 68.7194 1215.95 69.3197 1216.3 69.5669C1219.41 72.0974 1223.03 73.9176 1226.92 74.8993C1226.92 83.1275 1227.73 99.6191 1227.73 99.6191C1219.38 102.868 1213.12 101.95 1208.52 99.0894C1204.93 96.3881 1201.63 93.323 1198.68 89.943C1194.66 85.4246 1192.28 79.6899 1191.91 73.6581C1191.54 67.6263 1193.22 61.6466 1196.66 56.6773ZM1069.66 47.6369C1090.29 36.6896 1132.15 41.1039 1143.48 60.2087C1142.17 64.9408 1139.44 76.4178 1139.41 76.9828C1130.92 66.8124 1119.03 58.1605 1105.58 56.6067C1092.73 55.1588 1076.7 55.0175 1065.95 63.2104C1066.9 57.9557 1068.14 52.7568 1069.66 47.6369ZM1081.73 134.156C1089.94 131.649 1088.52 123.032 1089.66 116.252C1089.66 114.91 1079.32 113.639 1072.78 107.565C1063.08 98.5596 1063.44 77.0181 1065.7 64.3051C1076.49 55.9004 1093.3 55.8298 1106.29 57.5955C1110.06 58.1135 1113.73 59.1845 1117.19 60.7737C1116.2 65.4352 1116.3 73.5221 1117.75 75.535C1118.77 74.64 1119.98 73.9973 1121.29 73.6597C1122.6 73.3221 1123.97 73.2991 1125.29 73.5927C1126.16 73.8304 1126.97 74.2756 1127.63 74.8905C1128.3 75.5054 1128.81 76.2717 1129.11 77.1241C1131.34 82.8449 1126.39 86.341 1125.57 87.4711C1124.97 88.5451 1124.77 89.7955 1125.01 91.0025C1125.36 94.7412 1124.8 98.5089 1123.38 101.988C1121.97 105.466 1119.73 108.554 1116.87 110.99C1115.92 111.338 1114.95 111.632 1113.97 111.873C1113.47 111.873 1113.97 122.043 1125.54 131.79C1129.84 131.684 1134.14 131.825 1138.42 132.214C1135.82 139.615 1130.7 145.867 1123.95 149.871C1103.6 163.396 1087.53 160.465 1080.67 156.934C1077.06 154.911 1074.38 151.585 1073.16 147.643C1071.94 143.7 1072.29 139.442 1074.12 135.745C1076.49 135.145 1081.52 134.191 1081.69 134.156H1081.73ZM1024.26 98.8422C1024.26 99.0894 1022.25 100.855 1021.82 101.632C1021.77 100.425 1021.53 99.233 1021.11 98.1006C1022.53 97.0411 1024.65 97.7474 1024.23 98.7362L1024.26 98.8422ZM974.723 230.351C967.767 229.1 961.531 225.298 957.242 219.691C952.953 214.084 950.921 207.078 951.545 200.052C953.78 185.558 958.893 171.654 966.584 159.158C977.2 142.349 990.753 126.316 995.424 113.25C996.91 108.73 996.768 103.751 999.599 99.725C1001.18 97.567 1003.38 95.9279 1005.9 95.0161C1008.42 94.1043 1011.15 93.9611 1013.75 94.6045C1015.51 94.8069 1017.13 95.6315 1018.32 96.928C1019.52 98.2245 1020.21 99.9065 1020.26 101.667C1020.42 103.299 1020.19 104.944 1019.62 106.479C1019.04 108.014 1018.13 109.399 1016.94 110.531C1017.13 108.027 1016.66 105.516 1015.56 103.256C1015.56 102.939 1014.78 103.256 1014.92 103.539C1015.84 106.097 1016.03 108.858 1015.49 111.52C1015.03 112.544 1013.93 112.297 1013.33 112.12C1014.08 109.175 1013.99 106.077 1013.05 103.186C1013.02 103.107 1012.97 103.038 1012.9 102.989C1012.84 102.94 1012.76 102.913 1012.67 102.913C1012.59 102.913 1012.51 102.94 1012.44 102.989C1012.38 103.038 1012.33 103.107 1012.3 103.186C1012.3 105.199 1014.07 113.356 1010.43 111.59C1010.21 108.735 1009.83 105.893 1009.29 103.08C1009.29 102.621 1008.59 102.833 1008.62 103.256C1008.96 105.821 1009.15 108.403 1009.19 110.99C1009.19 112.473 1007.07 111.944 1006.39 110.99C1005.24 108.649 1004.81 106.019 1005.15 103.433C1005.14 103.328 1005.1 103.229 1005.03 103.149C1004.96 103.069 1004.86 103.012 1004.76 102.985C1004.66 102.959 1004.55 102.964 1004.45 102.999C1004.35 103.035 1004.26 103.1 1004.2 103.186C1002.39 106.717 1005.08 114.522 1008.59 114.027C1008.94 113.728 1009.4 113.564 1009.86 113.564C1010.33 113.564 1010.78 113.728 1011.13 114.027C1003.31 164.561 1005.51 187.904 987.639 200.405C987.391 200.405 987.639 201.041 987.886 200.829C996.115 194.63 1001.7 185.564 1003.53 175.438C1006.16 173.82 1008.89 172.357 1011.7 171.059C1013.05 177.31 1015.52 209.869 1019.06 218.521C1006.99 226.467 989.337 233.106 974.758 230.21L974.723 230.351ZM991.39 581.054C991.571 580.856 991.801 580.707 992.057 580.624C992.312 580.541 992.586 580.525 992.849 580.578C993.113 580.632 993.359 580.752 993.562 580.929C993.765 581.105 993.919 581.331 994.008 581.584C994.008 581.584 994.964 587.022 993.619 588.647C993.407 588.906 993.121 589.096 992.799 589.191C992.477 589.285 992.134 589.28 991.814 589.176C991.142 588.717 990.045 582.325 991.425 580.948L991.39 581.054ZM985.622 578.088C987.179 576.64 989.974 587.234 987.391 588.47C984.808 589.706 984.596 586.528 984.489 584.939C984.383 582.785 983.923 579.642 985.657 577.982L985.622 578.088ZM997.264 601.183C991.218 600.931 985.248 599.74 979.571 597.652C972.728 595.46 966.152 592.511 959.967 588.858C956.251 586.775 952.076 580.242 956.428 576.922C957.621 578.745 959.22 580.268 961.099 581.372C982.614 593.485 1000.02 596.063 1002.85 595.674C1004.34 595.439 1005.8 595.061 1007.21 594.544C1006.47 596.542 1005.1 598.253 1003.32 599.427C1001.54 600.602 999.432 601.18 997.299 601.077L997.264 601.183ZM996.273 587.552C996.315 587.276 996.423 587.015 996.586 586.788C996.75 586.562 996.964 586.378 997.213 586.25C997.461 586.123 997.737 586.056 998.016 586.055C998.296 586.054 998.571 586.119 998.821 586.245C999.363 586.577 999.825 587.025 1000.17 587.556C1000.52 588.087 1000.75 588.689 1000.84 589.318C1000.94 589.635 1000.93 589.975 1000.83 590.289C1000.72 590.604 1000.52 590.878 1000.25 591.073C999.981 591.268 999.657 591.374 999.325 591.375C998.992 591.377 998.667 591.275 998.396 591.083C998.396 591.083 996.096 588.788 996.308 587.446L996.273 587.552ZM1010.14 576.075C1007.99 577.095 1005.58 577.436 1003.23 577.051C1000.87 576.666 998.694 575.574 996.981 573.921C995.48 571.839 994.542 569.407 994.256 566.858C999.603 570.02 1005.74 571.611 1011.95 571.449C1011.42 572.826 1010.78 574.38 1010.18 575.969L1010.14 576.075ZM1070.8 448.238C1069.56 450.816 1057.95 485.318 1045.46 509.19C1039.41 520.738 1033.99 532.25 1027.2 543.339C1021.68 551.986 1016.76 561 1012.48 570.319C1006.05 570.314 999.723 568.661 994.114 565.516C993.761 563.327 993.619 561.525 993.513 561.243C995.105 545.564 995.99 529.814 997.759 514.134C999.811 495.736 1008.13 433.689 1013.4 417.091C1017.79 402.966 1026.95 390.959 1036.22 379.694C1050.66 391.1 1099.14 427.297 1100.27 427.968C1093.87 433.371 1072.67 444.283 1070.8 448.238ZM1269.66 427.968C1271.41 429.499 1272.67 431.518 1273.26 433.764C1273.85 436.01 1273.76 438.382 1272.99 440.575C1271.89 443.753 1265.21 447.638 1263.44 448.768L1262.2 448.592C1267.22 442.27 1267.19 434.784 1266.76 427.015C1267.82 427.368 1268.71 427.65 1269.66 427.968ZM1191.64 391.418C1210.18 401.306 1245.99 419.669 1265.77 426.732C1266.09 434.537 1266.2 442.058 1261.14 448.521C1204.13 440.434 1153.7 439.41 1126.28 418.716C1134.95 410.488 1161.67 384.285 1165.88 376.728C1174.44 381.53 1182.9 386.757 1191.64 391.418ZM1185.87 297.872C1194.12 301.968 1202.96 307.406 1206.04 316.553C1208.66 324.322 1205.69 332.62 1201.58 339.26C1194.2 350.461 1184.3 359.785 1172.67 366.487C1177.63 358.088 1180.76 348.737 1181.84 339.049C1182.93 329.36 1181.95 319.552 1178.97 310.267C1181.09 309.419 1183.15 308.501 1185.2 307.442C1185.34 307.462 1185.49 307.426 1185.61 307.34C1185.73 307.255 1185.81 307.126 1185.84 306.983C1185.87 306.629 1185.91 299.249 1185.87 297.872ZM1233.43 169.435C1240.22 174.061 1248.26 178.864 1253.49 185.326C1261.95 195.92 1264.32 210.787 1263.54 223.818C1261.63 255.389 1241.82 282.439 1236.01 313.092C1236.36 316.259 1236.14 319.463 1235.38 322.556C1234.84 325.758 1233.75 328.842 1232.16 331.667C1229.11 335.657 1218.18 332.479 1217.29 327.606C1217.29 324.643 1217.86 321.707 1218.96 318.954C1218.97 318.875 1218.96 318.793 1218.92 318.722C1218.88 318.652 1218.82 318.596 1218.74 318.566C1216.63 318.201 1214.65 317.274 1213.01 315.882C1212.83 315.603 1212.74 315.278 1212.74 314.946C1212.74 314.614 1212.83 314.289 1213.01 314.01C1213.65 313.445 1219.52 315.211 1221.72 312.35C1221.75 312.298 1221.77 312.237 1221.77 312.174C1221.77 312.111 1221.75 312.049 1221.72 311.997C1218.78 279.12 1210.57 246.172 1221.72 213.86C1221.74 213.811 1221.75 213.759 1221.75 213.705C1221.76 213.652 1221.75 213.598 1221.73 213.548C1221.71 213.499 1221.68 213.454 1221.64 213.416C1221.6 213.378 1221.55 213.349 1221.5 213.33C1213.29 208.986 1202.96 210.01 1195.71 203.619C1196.7 201.818 1210.89 162.866 1212.41 155.98C1219.56 160.182 1226.53 164.738 1233.43 169.435ZM1190.22 210.187C1187.92 213.189 1180 207.574 1177.24 206.302C1174.48 205.031 1170.73 203.301 1167.43 201.959C1166.87 201.712 1166.44 202.665 1167.01 202.948C1169.56 204.254 1172.18 205.49 1174.79 206.726C1181.39 239.656 1184.72 273.154 1184.74 306.735C1169.94 313.092 1153.96 316.256 1137.85 316.023C1120.96 316.802 1104.03 315.317 1087.53 311.609C1072.35 307.724 1057.03 304.793 1041.96 300.449C1037.89 299.284 1035.2 298.684 1034.88 293.669C1034.56 288.655 1035.76 217.885 1040.36 196.485C1040.36 195.991 1039.69 195.779 1039.59 196.273C1038.24 202.489 1037.21 208.774 1036.44 215.096C1032.9 217.25 1025.36 222.158 1021.22 219.792C1017.08 217.426 1017.15 205.667 1016.8 202.559C1016.05 196.344 1012.41 168.34 1012.8 167.245C1022.59 159.023 1033.27 151.917 1044.65 146.057C1053.79 141.733 1063.36 138.36 1073.2 135.992C1067.72 148.635 1076.39 162.301 1097.97 161.136C1106.99 160.095 1115.61 156.843 1123.06 151.672C1130.7 146.975 1137.21 141.078 1139.05 132.108C1165.59 134.262 1178.76 140.195 1189.2 142.914C1196.92 145.416 1204.51 148.34 1211.91 151.672C1211.91 151.672 1198.18 199.734 1190.15 210.152L1190.22 210.187ZM1337.78 114.522C1338.24 115.758 1337.46 117.488 1337.04 119.077C1293.51 126.952 1248.08 129.671 1207.42 148.317C1182.9 137.158 1152.29 129.777 1126.03 130.66C1120.04 126.209 1115.99 119.638 1114.71 112.297C1124.05 110.249 1129.82 102.444 1134.63 94.3573C1137.63 88.5094 1139.59 82.1898 1140.43 75.6762C1148.11 75.8528 1155.83 75.6762 1163.51 75.6762C1172.45 76.0471 1181.4 75.4789 1190.22 73.9811C1190.24 77.1457 1190.91 80.2725 1192.2 83.1628C1194.32 86.9353 1197.17 90.2486 1200.59 92.9094C1203.55 96.4213 1207.15 99.3344 1211.21 101.491C1216.8 103.438 1222.91 103.3 1228.4 101.102C1228.4 101.102 1229.93 115.899 1231.16 123.138C1231.16 123.95 1232.72 123.774 1232.62 123.138C1231.84 115.863 1230.6 101.349 1230.6 101.349C1230.6 101.349 1233.61 102.691 1234.95 103.221C1243.44 106.752 1258.27 101.032 1261.14 98.8775C1268.21 93.4744 1274.09 86.7295 1274.83 77.4419V72.8511C1274.83 72.8511 1329.4 72.8511 1339.98 73.3455C1335.06 79.2076 1330.67 95.3461 1337.78 114.522ZM1413.51 108.624C1406.43 121.055 1399.35 133.697 1391 145.457C1391.21 166.045 1391.78 186.774 1390.68 207.291C1390.68 207.497 1390.6 207.695 1390.46 207.841C1390.31 207.986 1390.11 208.068 1389.91 208.068C1389.7 208.068 1389.5 207.986 1389.35 207.841C1389.21 207.695 1389.13 207.497 1389.13 207.291V186.421C1382.52 179.356 1374.88 173.321 1366.48 168.517C1365.88 168.199 1366.48 167.245 1367.05 167.563C1375.5 171.498 1383.02 177.166 1389.13 184.196C1389.13 157.711 1389.76 131.225 1390.15 104.81C1384.92 98.3893 1378.47 93.0512 1371.19 89.0955C1370.48 88.7777 1371.19 87.7536 1371.82 88.0714C1379.24 91.0233 1385.63 96.0821 1390.19 102.621C1390.68 68.225 1390.19 69.2491 1390.93 69.3903C1391.11 69.3903 1391.21 69.3903 1391.25 69.7082C1392.03 92.8035 1391 115.899 1391.25 138.994V142.526C1398.33 130.907 1406.01 119.783 1412.8 108.059C1412.9 108.029 1413 108.026 1413.1 108.051C1413.2 108.075 1413.29 108.127 1413.37 108.2C1413.44 108.272 1413.49 108.363 1413.52 108.463C1413.54 108.563 1413.54 108.667 1413.51 108.765V108.624Z" fill="black"/>
<path d="M232.5 397.5C239.5 391.5 377 351 504 369.5C605.6 384.3 657.667 342.333 671 319.5" stroke="url(#paint0_linear_1817_1445)" stroke-width="10" stroke-linecap="round"/>
<defs>
<linearGradient id="paint0_linear_1817_1445" x1="711" y1="272.5" x2="159.5" y2="440.5" gradientUnits="userSpaceOnUse">
<stop stop-color="#00FF7C"/>
<stop offset="1" stop-color="#C62F94"/>
</linearGradient>
</defs>
</svg>
