<svg width="52" height="16" viewBox="0 0 52 16" fill="none" xmlns="http://www.w3.org/2000/svg">
<path d="M12.3496 15H8.72656L6.54883 11.3965C6.38607 11.123 6.22982 10.8789 6.08008 10.6641C5.93034 10.4492 5.77734 10.2669 5.62109 10.1172C5.47135 9.96094 5.31185 9.84375 5.14258 9.76562C4.97982 9.68099 4.80078 9.63867 4.60547 9.63867H3.75586V15H0.601562V0.996094H5.60156C9 0.996094 10.6992 2.26562 10.6992 4.80469C10.6992 5.29297 10.6243 5.74544 10.4746 6.16211C10.3249 6.57227 10.1133 6.94336 9.83984 7.27539C9.56641 7.60742 9.23438 7.89388 8.84375 8.13477C8.45964 8.37565 8.02995 8.56445 7.55469 8.70117V8.74023C7.76302 8.80534 7.96484 8.91276 8.16016 9.0625C8.35547 9.20573 8.54427 9.375 8.72656 9.57031C8.90885 9.76562 9.08138 9.97721 9.24414 10.2051C9.41341 10.4264 9.56641 10.6445 9.70312 10.8594L12.3496 15ZM3.75586 3.35938V7.25586H5.12305C5.80013 7.25586 6.34375 7.06055 6.75391 6.66992C7.17057 6.27279 7.37891 5.78125 7.37891 5.19531C7.37891 3.97135 6.64648 3.35938 5.18164 3.35938H3.75586Z" fill="#6569BE"/>
<path d="M18.5664 0.96C20.0464 0.96 21.3397 1.25333 22.4464 1.84C23.5531 2.42667 24.4064 3.25333 25.0064 4.32C25.6197 5.37333 25.9264 6.59333 25.9264 7.98C25.9264 9.35333 25.6197 10.5733 25.0064 11.64C24.4064 12.7067 23.5464 13.5333 22.4264 14.12C21.3197 14.7067 20.0331 15 18.5664 15H13.3064V0.96H18.5664ZM18.3464 12.04C19.6397 12.04 20.6464 11.6867 21.3664 10.98C22.0864 10.2733 22.4464 9.27333 22.4464 7.98C22.4464 6.68667 22.0864 5.68 21.3664 4.96C20.6464 4.24 19.6397 3.88 18.3464 3.88H16.7264V12.04H18.3464Z" fill="#FFB92D"/>
<path d="M35.9777 15L31.2577 8.8V15H27.8377V0.96H31.2577V7.12L35.9377 0.96H39.9577L34.5177 7.84L40.1577 15H35.9777Z" fill="#29A867"/>
<path d="M46.863 15.14C45.8363 15.14 44.9163 14.9733 44.103 14.64C43.2896 14.3067 42.6363 13.8133 42.143 13.16C41.663 12.5067 41.4096 11.72 41.383 10.8H45.023C45.0763 11.32 45.2563 11.72 45.563 12C45.8696 12.2667 46.2696 12.4 46.763 12.4C47.2696 12.4 47.6696 12.2867 47.963 12.06C48.2563 11.82 48.403 11.4933 48.403 11.08C48.403 10.7333 48.283 10.4467 48.043 10.22C47.8163 9.99333 47.5296 9.80667 47.183 9.66C46.8496 9.51333 46.3696 9.34667 45.743 9.16C44.8363 8.88 44.0963 8.6 43.523 8.32C42.9496 8.04 42.4563 7.62667 42.043 7.08C41.6296 6.53333 41.423 5.82 41.423 4.94C41.423 3.63333 41.8963 2.61333 42.843 1.88C43.7896 1.13333 45.023 0.76 46.543 0.76C48.0896 0.76 49.3363 1.13333 50.283 1.88C51.2296 2.61333 51.7363 3.64 51.803 4.96H48.103C48.0763 4.50667 47.9096 4.15333 47.603 3.9C47.2963 3.63333 46.903 3.5 46.423 3.5C46.0096 3.5 45.6763 3.61333 45.423 3.84C45.1696 4.05333 45.043 4.36667 45.043 4.78C45.043 5.23333 45.2563 5.58667 45.683 5.84C46.1096 6.09333 46.7763 6.36667 47.683 6.66C48.5896 6.96667 49.323 7.26 49.883 7.54C50.4563 7.82 50.9496 8.22667 51.363 8.76C51.7763 9.29333 51.983 9.98 51.983 10.82C51.983 11.62 51.7763 12.3467 51.363 13C50.963 13.6533 50.3763 14.1733 49.603 14.56C48.8296 14.9467 47.9163 15.14 46.863 15.14Z" fill="#F32355"/>
</svg>
